<?xml version="1.0" standalone="no"?>
 <!DOCTYPE svg PUBLIC "-//W3C//DTD SVG 1.1//EN" 
 "http://www.w3.org/Graphics/SVG/1.1/DTD/svg11.dtd"> 
<svg
  xmlns:svg="http://www.w3.org/2000/svg"
  xmlns="http://www.w3.org/2000/svg"
  xmlns:xlink="http://www.w3.org/1999/xlink"
  version="1.1"
  width="297.0022mm" height="210.0072mm" viewBox="0.0000 0.0000 297.0022 210.0072">
<title>SVG Image created as controller-B_Cu.svg date 2024/01/06 21:39:15 </title>
  <desc>Image generated by PCBNEW </desc>
<g style="fill:#000000; fill-opacity:1.0000;stroke:#000000; stroke-opacity:1.0000;
stroke-linecap:round; stroke-linejoin:round;"
 transform="translate(0 0) scale(1 1)">
</g>
<g style="fill:#000000; fill-opacity:0.0; 
stroke:#000000; stroke-width:0.0000; stroke-opacity:1; 
stroke-linecap:round; stroke-linejoin:round;">
</g>
<g style="fill:#000000; fill-opacity:1.0000; 
stroke:#000000; stroke-width:0.0212; stroke-opacity:1; 
stroke-linecap:round; stroke-linejoin:round;">
<rect x="22.890000" y="22.890000" width="45.674524" height="99.318250" rx="0.000000" />
</g>
<g style="fill:#FFFFFF; fill-opacity:1.0000; 
stroke:#FFFFFF; stroke-width:0.0212; stroke-opacity:1; 
stroke-linecap:round; stroke-linejoin:round;">
<g >
</g>
<g style="fill:#FFFFFF; fill-opacity:1.0000; 
stroke:#FFFFFF; stroke-width:0.0000; stroke-opacity:1; 
stroke-linecap:round; stroke-linejoin:round;">
<path style="fill:#FFFFFF; fill-opacity:1.0000; 
stroke:#FFFFFF; stroke-width:0.0000; stroke-opacity:1; 
stroke-linecap:round; stroke-linejoin:round;fill-rule:evenodd;"
d="M 32.0200,36.6181
34.0200,36.6181
34.0200,37.8181
32.0200,37.8181
Z" /> 
</g>
<g style="fill:#FFFFFF; fill-opacity:1.0000; 
stroke:#FFFFFF; stroke-width:1.2000; stroke-opacity:1; 
stroke-linecap:round; stroke-linejoin:round;">
</g>
<g style="fill:#FFFFFF; fill-opacity:0.0; 
stroke:#FFFFFF; stroke-width:1.2000; stroke-opacity:1; 
stroke-linecap:round; stroke-linejoin:round;">
<path d="M33.4200 39.7581
L32.6200 39.7581
" />
<path d="M33.4200 42.2981
L32.6200 42.2981
" />
<path d="M33.4200 44.8381
L32.6200 44.8381
" />
<path d="M33.4200 47.3781
L32.6200 47.3781
" />
<path d="M33.4200 49.9181
L32.6200 49.9181
" />
<path d="M33.4200 52.4581
L32.6200 52.4581
" />
<path d="M33.4200 54.9981
L32.6200 54.9981
" />
<path d="M33.4200 57.5381
L32.6200 57.5381
" />
<path d="M33.4200 60.0781
L32.6200 60.0781
" />
<path d="M33.4200 62.6181
L32.6200 62.6181
" />
<path d="M33.4200 65.1581
L32.6200 65.1581
" />
<path d="M33.4200 67.6981
L32.6200 67.6981
" />
<path d="M33.4200 70.2381
L32.6200 70.2381
" />
<path d="M33.4200 72.7781
L32.6200 72.7781
" />
<path d="M33.4200 75.3181
L32.6200 75.3181
" />
<path d="M33.4200 77.8581
L32.6200 77.8581
" />
<path d="M33.4200 80.3981
L32.6200 80.3981
" />
<path d="M33.4200 82.9381
L32.6200 82.9381
" />
<path d="M58.8163 82.9354
L58.0163 82.9354
" />
<path d="M58.8163 80.3954
L58.0163 80.3954
" />
<path d="M58.8200 77.8581
L58.0200 77.8581
" />
<path d="M58.8200 75.3181
L58.0200 75.3181
" />
<path d="M58.8200 72.7781
L58.0200 72.7781
" />
<path d="M58.8200 70.2381
L58.0200 70.2381
" />
<path d="M58.8200 67.6981
L58.0200 67.6981
" />
<path d="M58.8200 65.1581
L58.0200 65.1581
" />
<path d="M58.8200 62.6181
L58.0200 62.6181
" />
<path d="M58.8200 60.0781
L58.0200 60.0781
" />
<path d="M58.8200 57.5381
L58.0200 57.5381
" />
<path d="M58.8200 54.9981
L58.0200 54.9981
" />
<path d="M58.8200 52.4581
L58.0200 52.4581
" />
<path d="M58.8200 49.9181
L58.0200 49.9181
" />
<path d="M58.8200 47.3781
L58.0200 47.3781
" />
<path d="M58.8200 44.8381
L58.0200 44.8381
" />
<path d="M58.8200 42.2981
L58.0200 42.2981
" />
<path d="M58.8200 39.7581
L58.0200 39.7581
" />
<path d="M58.8200 37.2181
L58.0200 37.2181
" />
</g>
<g >
</g>
<g style="fill:#FFFFFF; fill-opacity:0.0; 
stroke:#FFFFFF; stroke-width:1.2000; stroke-opacity:1; 
stroke-linecap:round; stroke-linejoin:round;">
</g>
<g style="fill:#FFFFFF; fill-opacity:0.0; 
stroke:#FFFFFF; stroke-width:0.0000; stroke-opacity:1; 
stroke-linecap:round; stroke-linejoin:round;">
</g>
<g style="fill:#FFFFFF; fill-opacity:1.0000; 
stroke:#FFFFFF; stroke-width:0.0000; stroke-opacity:1; 
stroke-linecap:round; stroke-linejoin:round;">
<path style="fill:#FFFFFF; fill-opacity:1.0000; 
stroke:#FFFFFF; stroke-width:0.0000; stroke-opacity:1; 
stroke-linecap:round; stroke-linejoin:round;fill-rule:evenodd;"
d="M 42.3700,90.6900
42.3890,90.5943
42.4432,90.5132
42.5243,90.4590
42.6200,90.4400
43.8200,90.4400
43.9157,90.4590
43.9968,90.5132
44.0510,90.5943
44.0700,90.6900
44.0700,92.1900
44.0510,92.2857
43.9968,92.3668
43.9157,92.4210
43.8200,92.4400
42.6200,92.4400
42.5243,92.4210
42.4432,92.3668
42.3890,92.2857
42.3700,92.1900
Z" /> 
</g>
<g style="fill:#FFFFFF; fill-opacity:1.0000; 
stroke:#FFFFFF; stroke-width:1.7000; stroke-opacity:1; 
stroke-linecap:round; stroke-linejoin:round;">
</g>
<g style="fill:#FFFFFF; fill-opacity:0.0; 
stroke:#FFFFFF; stroke-width:1.7000; stroke-opacity:1; 
stroke-linecap:round; stroke-linejoin:round;">
<path d="M45.7200 91.2900
L45.7200 91.5900
" />
</g>
<g >
</g>
<g style="fill:#FFFFFF; fill-opacity:0.0; 
stroke:#FFFFFF; stroke-width:1.7000; stroke-opacity:1; 
stroke-linecap:round; stroke-linejoin:round;">
</g>
<g style="fill:#FFFFFF; fill-opacity:0.0; 
stroke:#FFFFFF; stroke-width:0.0000; stroke-opacity:1; 
stroke-linecap:round; stroke-linejoin:round;">
</g>
<g style="fill:#FFFFFF; fill-opacity:1.0000; 
stroke:#FFFFFF; stroke-width:0.0000; stroke-opacity:1; 
stroke-linecap:round; stroke-linejoin:round;">
<path style="fill:#FFFFFF; fill-opacity:1.0000; 
stroke:#FFFFFF; stroke-width:0.0000; stroke-opacity:1; 
stroke-linecap:round; stroke-linejoin:round;fill-rule:evenodd;"
d="M 32.3300,100.8750
32.3490,100.7793
32.4032,100.6982
32.4843,100.6440
32.5800,100.6250
33.7800,100.6250
33.8757,100.6440
33.9568,100.6982
34.0110,100.7793
34.0300,100.8750
34.0300,102.3250
34.0110,102.4207
33.9568,102.5018
33.8757,102.5560
33.7800,102.5750
32.5800,102.5750
32.4843,102.5560
32.4032,102.5018
32.3490,102.4207
32.3300,102.3250
Z" /> 
</g>
<g style="fill:#FFFFFF; fill-opacity:1.0000; 
stroke:#FFFFFF; stroke-width:1.7000; stroke-opacity:1; 
stroke-linecap:round; stroke-linejoin:round;">
</g>
<g style="fill:#FFFFFF; fill-opacity:0.0; 
stroke:#FFFFFF; stroke-width:1.7000; stroke-opacity:1; 
stroke-linecap:round; stroke-linejoin:round;">
<path d="M35.6800 101.4750
L35.6800 101.7250
" />
<path d="M38.1800 101.4750
L38.1800 101.7250
" />
<path d="M40.6800 101.4750
L40.6800 101.7250
" />
<path d="M43.1800 101.4750
L43.1800 101.7250
" />
</g>
<g >
</g>
<g style="fill:#FFFFFF; fill-opacity:0.0; 
stroke:#FFFFFF; stroke-width:1.7000; stroke-opacity:1; 
stroke-linecap:round; stroke-linejoin:round;">
</g>
<g style="fill:#FFFFFF; fill-opacity:0.0; 
stroke:#FFFFFF; stroke-width:0.0000; stroke-opacity:1; 
stroke-linecap:round; stroke-linejoin:round;">
</g>
<g style="fill:#FFFFFF; fill-opacity:1.0000; 
stroke:#FFFFFF; stroke-width:0.0000; stroke-opacity:1; 
stroke-linecap:round; stroke-linejoin:round;">
<path style="fill:#FFFFFF; fill-opacity:1.0000; 
stroke:#FFFFFF; stroke-width:0.0000; stroke-opacity:1; 
stroke-linecap:round; stroke-linejoin:round;fill-rule:evenodd;"
d="M 32.2100,90.6900
32.2290,90.5943
32.2832,90.5132
32.3643,90.4590
32.4600,90.4400
33.6600,90.4400
33.7557,90.4590
33.8368,90.5132
33.8910,90.5943
33.9100,90.6900
33.9100,92.1900
33.8910,92.2857
33.8368,92.3668
33.7557,92.4210
33.6600,92.4400
32.4600,92.4400
32.3643,92.4210
32.2832,92.3668
32.2290,92.2857
32.2100,92.1900
Z" /> 
</g>
<g style="fill:#FFFFFF; fill-opacity:1.0000; 
stroke:#FFFFFF; stroke-width:1.7000; stroke-opacity:1; 
stroke-linecap:round; stroke-linejoin:round;">
</g>
<g style="fill:#FFFFFF; fill-opacity:0.0; 
stroke:#FFFFFF; stroke-width:1.7000; stroke-opacity:1; 
stroke-linecap:round; stroke-linejoin:round;">
<path d="M35.5600 91.2900
L35.5600 91.5900
" />
</g>
<g >
</g>
<g style="fill:#FFFFFF; fill-opacity:0.0; 
stroke:#FFFFFF; stroke-width:1.7000; stroke-opacity:1; 
stroke-linecap:round; stroke-linejoin:round;">
</g>
<g style="fill:#FFFFFF; fill-opacity:0.0; 
stroke:#FFFFFF; stroke-width:0.0000; stroke-opacity:1; 
stroke-linecap:round; stroke-linejoin:round;">
</g>
<g style="fill:#FFFFFF; fill-opacity:1.0000; 
stroke:#FFFFFF; stroke-width:0.0000; stroke-opacity:1; 
stroke-linecap:round; stroke-linejoin:round;">
<path style="fill:#FFFFFF; fill-opacity:1.0000; 
stroke:#FFFFFF; stroke-width:0.0000; stroke-opacity:1; 
stroke-linecap:round; stroke-linejoin:round;fill-rule:evenodd;"
d="M 52.5300,90.6900
52.5490,90.5943
52.6032,90.5132
52.6843,90.4590
52.7800,90.4400
53.9800,90.4400
54.0757,90.4590
54.1568,90.5132
54.2110,90.5943
54.2300,90.6900
54.2300,92.1900
54.2110,92.2857
54.1568,92.3668
54.0757,92.4210
53.9800,92.4400
52.7800,92.4400
52.6843,92.4210
52.6032,92.3668
52.5490,92.2857
52.5300,92.1900
Z" /> 
</g>
<g style="fill:#FFFFFF; fill-opacity:1.0000; 
stroke:#FFFFFF; stroke-width:1.7000; stroke-opacity:1; 
stroke-linecap:round; stroke-linejoin:round;">
</g>
<g style="fill:#FFFFFF; fill-opacity:0.0; 
stroke:#FFFFFF; stroke-width:1.7000; stroke-opacity:1; 
stroke-linecap:round; stroke-linejoin:round;">
<path d="M55.8800 91.2900
L55.8800 91.5900
" />
</g>
<g >
</g>
<g style="fill:#FFFFFF; fill-opacity:0.0; 
stroke:#FFFFFF; stroke-width:1.7000; stroke-opacity:1; 
stroke-linecap:round; stroke-linejoin:round;">
</g>
<g style="fill:#FFFFFF; fill-opacity:0.0; 
stroke:#FFFFFF; stroke-width:0.0000; stroke-opacity:1; 
stroke-linecap:round; stroke-linejoin:round;">
</g>
<g style="fill:#FFFFFF; fill-opacity:1.0000; 
stroke:#FFFFFF; stroke-width:0.0000; stroke-opacity:1; 
stroke-linecap:round; stroke-linejoin:round;">
<path style="fill:#FFFFFF; fill-opacity:1.0000; 
stroke:#FFFFFF; stroke-width:0.0000; stroke-opacity:1; 
stroke-linecap:round; stroke-linejoin:round;fill-rule:evenodd;"
d="M 39.9100,111.0350
39.9290,110.9393
39.9832,110.8582
40.0643,110.8040
40.1600,110.7850
41.3600,110.7850
41.4557,110.8040
41.5368,110.8582
41.5910,110.9393
41.6100,111.0350
41.6100,112.4850
41.5910,112.5807
41.5368,112.6618
41.4557,112.7160
41.3600,112.7350
40.1600,112.7350
40.0643,112.7160
39.9832,112.6618
39.9290,112.5807
39.9100,112.4850
Z" /> 
</g>
<g style="fill:#FFFFFF; fill-opacity:1.0000; 
stroke:#FFFFFF; stroke-width:1.7000; stroke-opacity:1; 
stroke-linecap:round; stroke-linejoin:round;">
</g>
<g style="fill:#FFFFFF; fill-opacity:0.0; 
stroke:#FFFFFF; stroke-width:1.7000; stroke-opacity:1; 
stroke-linecap:round; stroke-linejoin:round;">
<path d="M43.2600 111.6350
L43.2600 111.8850
" />
<path d="M45.7600 111.6350
L45.7600 111.8850
" />
<path d="M48.2600 111.6350
L48.2600 111.8850
" />
</g>
<g >
</g>
<g style="fill:#FFFFFF; fill-opacity:0.0; 
stroke:#FFFFFF; stroke-width:1.7000; stroke-opacity:1; 
stroke-linecap:round; stroke-linejoin:round;">
</g>
<g style="fill:#FFFFFF; fill-opacity:0.0; 
stroke:#FFFFFF; stroke-width:0.0000; stroke-opacity:1; 
stroke-linecap:round; stroke-linejoin:round;">
</g>
<g style="fill:#FFFFFF; fill-opacity:1.0000; 
stroke:#FFFFFF; stroke-width:0.0000; stroke-opacity:1; 
stroke-linecap:round; stroke-linejoin:round;">
<path style="fill:#FFFFFF; fill-opacity:1.0000; 
stroke:#FFFFFF; stroke-width:0.0000; stroke-opacity:1; 
stroke-linecap:round; stroke-linejoin:round;fill-rule:evenodd;"
d="M 50.0000,100.8000
51.6000,100.8000
51.6000,102.4000
50.0000,102.4000
Z" /> 
<circle cx="50.8000" cy="103.6000" r="0.8000" /> 
</g>
<g style="fill:#FFFFFF; fill-opacity:1.0000; 
stroke:#FFFFFF; stroke-width:0.0212; stroke-opacity:1; 
stroke-linecap:round; stroke-linejoin:round;">
</g>
<g >
</g>
<g style="fill:#FFFFFF; fill-opacity:1.0000; 
stroke:#FFFFFF; stroke-width:0.0212; stroke-opacity:1; 
stroke-linecap:round; stroke-linejoin:round;">
</g>
<g style="fill:#FFFFFF; fill-opacity:1.0000; 
stroke:#FFFFFF; stroke-width:0.0000; stroke-opacity:1; 
stroke-linecap:round; stroke-linejoin:round;">
<path style="fill:#FFFFFF; fill-opacity:1.0000; 
stroke:#FFFFFF; stroke-width:0.0000; stroke-opacity:1; 
stroke-linecap:round; stroke-linejoin:round;fill-rule:evenodd;"
d="M 57.6200,100.8000
59.2200,100.8000
59.2200,102.4000
57.6200,102.4000
Z" /> 
<circle cx="58.4200" cy="103.6000" r="0.8000" /> 
</g>
<g style="fill:#FFFFFF; fill-opacity:1.0000; 
stroke:#FFFFFF; stroke-width:0.0212; stroke-opacity:1; 
stroke-linecap:round; stroke-linejoin:round;">
</g>
<g >
</g>
<g >
</g>
<g style="fill:#FFFFFF; fill-opacity:1.0000; 
stroke:#FFFFFF; stroke-width:0.0212; stroke-opacity:1; 
stroke-linecap:round; stroke-linejoin:round;">
</g>
<g style="fill:#FFFFFF; fill-opacity:1.0000; 
stroke:#FFFFFF; stroke-width:0.5000; stroke-opacity:1; 
stroke-linecap:round; stroke-linejoin:round;">
</g>
<g style="fill:#FFFFFF; fill-opacity:0.0; 
stroke:#FFFFFF; stroke-width:0.5000; stroke-opacity:1; 
stroke-linecap:round; stroke-linejoin:round;">
<path d="M53.3400 106.6800
L58.4200 101.6000
" />
<path d="M48.2600 106.6800
L53.3400 106.6800
" />
<path d="M43.1800 101.6000
L48.2600 106.6800
" />
<path d="M47.7215 79.8596
L33.0200 65.1581
" />
<path d="M40.6400 96.5200
L47.7215 96.5200
" />
<path d="M38.1800 98.9800
L40.6400 96.5200
" />
<path d="M47.7215 96.5200
L47.7215 79.8596
" />
<path d="M38.1800 101.6000
L38.1800 98.9800
" />
<path d="M61.1845 103.9155
L61.1845 52.6826
" />
<path d="M53.3400 111.7600
L61.1845 103.9155
" />
<path d="M48.2600 111.7600
L53.3400 111.7600
" />
<path d="M61.1845 52.6826
L58.4200 49.9181
" />
<path d="M62.4566 46.3347
L58.4200 42.2981
" />
<path d="M45.7600 111.7600
L48.3000 114.3000
" />
<path d="M48.3000 114.3000
L53.3400 114.3000
" />
<path d="M53.3400 114.3000
L62.4566 105.1834
" />
<path d="M62.4566 105.1834
L62.4566 46.3347
" />
<path d="M30.4800 39.7581
L33.0200 37.2181
" />
<path d="M30.4800 96.4000
L30.4800 39.7581
" />
<path d="M35.6800 101.6000
L30.4800 96.4000
" />
<path d="M43.2600 111.7600
L43.1800 111.7600
" />
<path d="M59.8700 56.4481
L58.4200 54.9981
" />
<path d="M59.8700 100.1500
L59.8700 56.4481
" />
<path d="M58.4200 101.6000
L59.8700 100.1500
" />
<path d="M50.8000 101.6000
L50.8000 65.1581
" />
<path d="M50.8000 65.1581
L58.4200 57.5381
" />
<path d="M49.3750 100.1750
L50.8000 101.6000
" />
<path d="M42.1050 100.1750
L49.3750 100.1750
" />
<path d="M40.6800 101.6000
L42.1050 100.1750
" />
<path d="M35.6800 106.6800
L40.7600 111.7600
" />
<path d="M35.6800 101.6000
L35.6800 106.6800
" />
<path d="M53.3800 91.4400
L53.3800 70.1981
" />
<path d="M53.3800 70.1981
L58.4200 65.1581
" />
<path d="M43.2200 77.8981
L33.0200 67.6981
" />
<path d="M43.2200 91.4400
L43.2200 77.8981
" />
</g>
<g style="fill:#FFFFFF; fill-opacity:0.0; 
stroke:#FFFFFF; stroke-width:0.2500; stroke-opacity:1; 
stroke-linecap:round; stroke-linejoin:round;">
<path d="M33.0200 91.4000
L33.0600 91.4400
" />
</g>
<g style="fill:#FFFFFF; fill-opacity:0.0; 
stroke:#FFFFFF; stroke-width:0.5000; stroke-opacity:1; 
stroke-linecap:round; stroke-linejoin:round;">
<path d="M33.0200 82.9381
L33.0200 91.4000
" />
</g>
<g style="fill:#FFFFFF; fill-opacity:0.0; 
stroke:#FFFFFF; stroke-width:0.2500; stroke-opacity:1; 
stroke-linecap:round; stroke-linejoin:round;">
<path d="M33.0600 82.9781
L33.0200 82.9381
" />
</g>
<g >
</g>
<g style="fill:#FFFFFF; fill-opacity:0.0; 
stroke:#FFFFFF; stroke-width:0.2500; stroke-opacity:1; 
stroke-linecap:round; stroke-linejoin:round;">
<g >
</g>
<g style="fill:#FFFFFF; fill-opacity:1.0000; 
stroke:#FFFFFF; stroke-width:0.0000; stroke-opacity:1; 
stroke-linecap:round; stroke-linejoin:round;">
<path style="fill:#FFFFFF; fill-opacity:1.0000; 
stroke:#FFFFFF; stroke-width:0.0000; stroke-opacity:1; 
stroke-linecap:round; stroke-linejoin:round;fill-rule:evenodd;"
d="M 56.8730,60.2490
56.9289,60.2909
56.9501,60.3360
56.9753,60.4397
56.9753,60.4397
57.0626,60.6309
57.0626,60.6309
57.0626,60.6309
57.0626,60.6309
57.1256,60.7194
57.1845,60.8021
57.1845,60.8021
57.3366,60.9471
57.4316,61.0081
57.5134,61.0607
57.7085,61.1388
57.8117,61.1587
57.9149,61.1786
57.9149,61.1786
58.8724,61.1786
58.9329,61.1728
58.9837,61.1680
59.0523,61.1812
59.1029,61.2294
59.1195,61.2914
59.1195,61.4049
59.0998,61.4719
59.0470,61.5177
58.9779,61.5276
58.9720,61.5267
58.9251,61.5176
58.9251,61.5176
57.9676,61.5176
57.8108,61.5326
57.8108,61.5326
57.6091,61.5918
57.4223,61.6881
57.2571,61.8180
57.2571,61.8180
57.1195,61.9769
57.0144,62.1589
56.9457,62.3575
56.9457,62.3575
56.9308,62.4608
56.9157,62.5655
56.9257,62.7754
56.9753,62.9797
56.9753,62.9797
57.0626,63.1709
57.0626,63.1709
57.0626,63.1709
57.0626,63.1709
57.1256,63.2594
57.1845,63.3421
57.1845,63.3421
57.3366,63.4871
57.4316,63.5481
57.5134,63.6007
57.7085,63.6788
57.8117,63.6987
57.9149,63.7186
57.9149,63.7186
58.8724,63.7186
58.9329,63.7128
58.9837,63.7080
59.0523,63.7212
59.1029,63.7694
59.1195,63.8314
59.1195,63.9449
59.0998,64.0119
59.0470,64.0577
58.9779,64.0676
58.9720,64.0667
58.9251,64.0576
58.9251,64.0576
57.9676,64.0576
57.8108,64.0726
57.8108,64.0726
57.6091,64.1318
57.4223,64.2281
57.2571,64.3580
57.2571,64.3580
57.1195,64.5169
57.0144,64.6989
56.9457,64.8975
56.9457,64.8975
56.9177,65.0923
56.9157,65.1055
56.9257,65.3154
56.9257,65.3154
56.9257,65.3154
56.9631,65.4695
56.9598,65.5393
56.9303,65.5864
52.8944,69.6224
52.8807,69.6342
52.8615,69.6485
52.8296,69.6865
52.8223,69.6944
52.8184,69.6983
52.7992,69.7227
52.7969,69.7255
52.7487,69.7829
52.7447,69.7889
52.7447,69.7889
52.7406,69.7953
52.7407,69.7953
52.7369,69.8014
52.7052,69.8694
52.7036,69.8727
52.6700,69.9397
52.6675,69.9465
52.6674,69.9465
52.6650,69.9536
52.6650,69.9536
52.6627,69.9604
52.6476,70.0339
52.6468,70.0374
52.6295,70.1104
52.6287,70.1176
52.6286,70.1176
52.6278,70.1251
52.6279,70.1251
52.6273,70.1323
52.6294,70.2072
52.6295,70.2109
52.6295,89.8597
52.6098,89.9267
52.5570,89.9725
52.5445,89.9774
52.5193,89.9857
52.4607,90.0052
52.4607,90.0052
52.3113,90.0973
52.1873,90.2213
52.0952,90.3707
52.0952,90.3707
52.0400,90.5372
52.0400,90.5372
52.0400,90.5372
52.0295,90.6400
52.0295,92.2400
52.0295,92.2400
52.0400,92.3428
52.0400,92.3428
52.0952,92.5093
52.0952,92.5093
52.1873,92.6587
52.3113,92.7827
52.4607,92.8748
52.6272,92.9300
52.7300,92.9405
54.0300,92.9405
54.1328,92.9300
54.2993,92.8748
54.4487,92.7827
54.5727,92.6587
54.6648,92.5093
54.7200,92.3428
54.7305,92.2400
54.7305,90.6400
54.7200,90.5372
54.6648,90.3707
54.5727,90.2213
54.4487,90.0973
54.2993,90.0052
54.2155,89.9774
54.1581,89.9376
54.1312,89.8731
54.1305,89.8597
54.1305,70.5603
54.1502,70.4933
54.1668,70.4727
56.7420,67.8975
56.8033,67.8641
56.8730,67.8690
56.9289,67.9109
56.9501,67.9560
56.9753,68.0597
56.9753,68.0597
57.0626,68.2509
57.0626,68.2509
57.0626,68.2509
57.0626,68.2509
57.1845,68.4221
57.1845,68.4221
57.1845,68.4221
57.3366,68.5671
57.3366,68.5671
57.5134,68.6807
57.7085,68.7588
57.8117,68.7787
57.9149,68.7986
57.9149,68.7986
58.8724,68.7986
58.9329,68.7928
58.9837,68.7880
59.0523,68.8012
59.1029,68.8494
59.1195,68.9114
59.1195,69.0249
59.0998,69.0919
59.0470,69.1377
58.9779,69.1476
58.9720,69.1467
58.9251,69.1376
58.9251,69.1376
57.9676,69.1376
57.8108,69.1526
57.8108,69.1526
57.6091,69.2118
57.4223,69.3081
57.2571,69.4380
57.2571,69.4380
57.1195,69.5969
57.0144,69.7789
56.9457,69.9775
56.9457,69.9775
56.9234,70.1323
56.9157,70.1855
56.9257,70.3954
56.9753,70.5997
56.9753,70.5997
57.0626,70.7909
57.0626,70.7909
57.0626,70.7909
57.0626,70.7909
57.1845,70.9621
57.1845,70.9621
57.1845,70.9621
57.3366,71.1071
57.3366,71.1071
57.5134,71.2207
57.7085,71.2988
57.8117,71.3187
57.9149,71.3386
57.9149,71.3386
58.8724,71.3386
58.9329,71.3328
58.9837,71.3280
59.0523,71.3412
59.1029,71.3894
59.1195,71.4514
59.1195,71.5649
59.0998,71.6319
59.0470,71.6777
58.9779,71.6876
58.9720,71.6867
58.9251,71.6776
58.9251,71.6776
57.9676,71.6776
57.8108,71.6926
57.8108,71.6926
57.6091,71.7518
57.4223,71.8481
57.2571,71.9780
57.2571,71.9780
57.1195,72.1369
57.0144,72.3189
56.9457,72.5175
56.9457,72.5175
56.9308,72.6208
56.9157,72.7255
56.9257,72.9354
56.9753,73.1397
56.9753,73.1397
57.0626,73.3309
57.0626,73.3309
57.0626,73.3309
57.0626,73.3309
57.1256,73.4194
57.1845,73.5021
57.1845,73.5021
57.3366,73.6471
57.4316,73.7081
57.5134,73.7607
57.7085,73.8388
57.8117,73.8587
57.9149,73.8786
57.9149,73.8786
58.8724,73.8786
58.9329,73.8728
58.9837,73.8680
59.0523,73.8812
59.1029,73.9294
59.1195,73.9914
59.1195,74.1049
59.0998,74.1719
59.0470,74.2177
58.9779,74.2276
58.9720,74.2267
58.9251,74.2176
58.9251,74.2176
57.9676,74.2176
57.8108,74.2326
57.8108,74.2326
57.6091,74.2918
57.4223,74.3881
57.2571,74.5180
57.2571,74.5180
57.1195,74.6769
57.0144,74.8589
56.9457,75.0575
56.9457,75.0575
56.9308,75.1608
56.9157,75.2655
56.9257,75.4754
56.9753,75.6797
56.9753,75.6797
57.0626,75.8709
57.0626,75.8709
57.0626,75.8709
57.0626,75.8709
57.1256,75.9594
57.1845,76.0421
57.1845,76.0421
57.3366,76.1871
57.4316,76.2481
57.5134,76.3007
57.7085,76.3788
57.8117,76.3987
57.9149,76.4186
57.9149,76.4186
58.8724,76.4186
58.9329,76.4128
58.9837,76.4080
59.0523,76.4212
59.1029,76.4694
59.1195,76.5314
59.1195,76.6449
59.0998,76.7119
59.0470,76.7577
58.9779,76.7676
58.9720,76.7667
58.9251,76.7576
58.9251,76.7576
57.9676,76.7576
57.8108,76.7726
57.8108,76.7726
57.6091,76.8318
57.4223,76.9281
57.2571,77.0580
57.2571,77.0580
57.1195,77.2169
57.0144,77.3989
56.9457,77.5975
56.9457,77.5975
56.9244,77.7453
56.9157,77.8055
56.9257,78.0154
56.9753,78.2197
56.9753,78.2197
57.0626,78.4109
57.0626,78.4109
57.0626,78.4109
57.0626,78.4109
57.1256,78.4994
57.1845,78.5821
57.1845,78.5821
57.3366,78.7271
57.4316,78.7881
57.5134,78.8407
57.7085,78.9188
57.8117,78.9387
57.9149,78.9586
57.9149,78.9586
58.8724,78.9586
58.9329,78.9528
58.9837,78.9480
59.0523,78.9612
59.1029,79.0094
59.1195,79.0714
59.1195,79.1829
59.0998,79.2499
59.0470,79.2957
58.9779,79.3056
58.9720,79.3047
58.9214,79.2949
58.9214,79.2949
57.9639,79.2949
57.8071,79.3099
57.8071,79.3099
57.6054,79.3691
57.4186,79.4654
57.2534,79.5953
57.2534,79.5953
57.1158,79.7541
57.0107,79.9361
56.9420,80.1348
56.9420,80.1348
56.9267,80.2408
56.9121,80.3428
56.9221,80.5527
56.9716,80.7570
56.9716,80.7570
57.0589,80.9481
57.0589,80.9481
57.0589,80.9481
57.0589,80.9482
57.1808,81.1194
57.1808,81.1194
57.1808,81.1194
57.3329,81.2644
57.4741,81.3551
57.5097,81.3780
57.7049,81.4561
57.8080,81.4760
57.9112,81.4959
57.9112,81.4959
58.8687,81.4959
58.9837,81.4849
59.0523,81.4981
59.1029,81.5464
59.1195,81.6084
59.1195,81.7229
59.0998,81.7899
59.0470,81.8357
58.9779,81.8456
58.9720,81.8447
58.9214,81.8349
58.9214,81.8349
57.9639,81.8349
57.8071,81.8499
57.8071,81.8499
57.6054,81.9091
57.4186,82.0054
57.2534,82.1353
57.2534,82.1353
57.1158,82.2941
57.0107,82.4761
56.9420,82.6748
56.9420,82.6748
56.9267,82.7808
56.9121,82.8828
56.9221,83.0927
56.9716,83.2970
56.9716,83.2970
57.0589,83.4881
57.0589,83.4881
57.0589,83.4881
57.0589,83.4882
57.1808,83.6594
57.1808,83.6594
57.1808,83.6594
57.3329,83.8044
57.4741,83.8951
57.5097,83.9180
57.7049,83.9961
57.8080,84.0160
57.9112,84.0359
57.9112,84.0359
58.8687,84.0359
58.9837,84.0249
59.0523,84.0381
59.1029,84.0864
59.1195,84.1484
59.1195,99.7878
59.0998,99.8548
59.0832,99.8755
58.6954,100.2632
58.6341,100.2967
58.6078,100.2995
57.5721,100.2995
57.5721,100.2995
57.5125,100.3059
57.3777,100.3562
57.3777,100.3562
57.2625,100.4425
57.2625,100.4425
57.1762,100.5577
57.1762,100.5577
57.1259,100.6925
57.1195,100.7521
57.1195,100.7521
57.1195,100.7521
57.1195,101.7878
57.0998,101.8548
57.0832,101.8755
53.0655,105.8932
53.0041,105.9267
52.9778,105.9295
48.6222,105.9295
48.5552,105.9098
48.5345,105.8932
44.5629,101.9216
44.5294,101.8602
44.5271,101.8231
44.5305,101.7840
44.5305,101.4160
44.5151,101.2396
44.4727,101.0816
44.4744,101.0117
44.5136,100.9539
44.5778,100.9264
44.5925,100.9255
49.0128,100.9255
49.0798,100.9452
49.1005,100.9618
49.4632,101.3245
49.4967,101.3859
49.4995,101.4122
49.4995,102.4479
49.4995,102.4479
49.5059,102.5075
49.5562,102.6423
49.5562,102.6423
49.6425,102.7575
49.6425,102.7575
49.7577,102.8438
49.7577,102.8438
49.8925,102.8941
49.8925,102.8941
49.8994,102.8948
49.9521,102.9005
51.6479,102.9005
51.7075,102.8941
51.8423,102.8438
51.9575,102.7575
52.0438,102.6423
52.0941,102.5075
52.1005,102.4479
52.1005,100.7521
52.0953,100.7038
52.0941,100.6925
52.0438,100.5577
52.0438,100.5577
51.9575,100.4425
51.9575,100.4425
51.8423,100.3562
51.8423,100.3562
51.7075,100.3059
51.6612,100.3009
51.5967,100.2742
51.5568,100.2168
51.5505,100.1776
51.5505,65.5203
51.5702,65.4533
51.5868,65.4327
56.7420,60.2775
56.8033,60.2441
Z" /> 
<path style="fill:#FFFFFF; fill-opacity:1.0000; 
stroke:#FFFFFF; stroke-width:0.0000; stroke-opacity:1; 
stroke-linecap:round; stroke-linejoin:round;fill-rule:evenodd;"
d="M 63.4425,27.9602
63.4883,28.0130
63.4995,28.0645
63.4995,116.7155
63.4798,116.7825
63.4270,116.8283
63.3755,116.8395
28.0645,116.8395
27.9975,116.8198
27.9517,116.7670
27.9405,116.7155
27.9405,96.3780
29.7247,96.3780
29.7290,96.4274
29.7295,96.4382
29.7295,96.4437
29.7331,96.4745
29.7335,96.4781
29.7400,96.5528
29.7415,96.5599
29.7414,96.5599
29.7430,96.5672
29.7431,96.5672
29.7448,96.5742
29.7448,96.5743
29.7448,96.5743
29.7687,96.6400
29.7704,96.6447
29.7716,96.6481
29.7952,96.7193
29.7982,96.7259
29.7982,96.7259
29.8015,96.7327
29.8015,96.7327
29.8048,96.7391
29.8460,96.8018
29.8479,96.8048
29.8790,96.8552
29.8873,96.8687
29.8918,96.8743
29.8917,96.8744
29.8965,96.8802
29.8965,96.8802
29.9012,96.8857
29.9557,96.9372
29.9583,96.9397
34.2971,101.2784
34.3306,101.3398
34.3329,101.3769
34.3295,101.4160
34.3295,101.7840
34.3449,101.9604
34.3449,101.9604
34.4061,102.1887
34.4061,102.1887
34.4061,102.1887
34.4300,102.2399
34.5060,102.4028
34.5060,102.4028
34.6415,102.5964
34.8086,102.7635
34.8086,102.7635
34.8086,102.7635
34.8766,102.8111
34.9202,102.8657
34.9295,102.9127
34.9295,106.6163
34.9282,106.6343
34.9247,106.6580
34.9290,106.7074
34.9295,106.7182
34.9295,106.7237
34.9331,106.7545
34.9335,106.7581
34.9400,106.8328
34.9415,106.8399
34.9414,106.8399
34.9430,106.8472
34.9431,106.8472
34.9448,106.8542
34.9704,106.9247
34.9716,106.9281
34.9952,106.9993
34.9982,107.0059
34.9982,107.0059
35.0015,107.0127
35.0015,107.0127
35.0048,107.0191
35.0460,107.0818
35.0479,107.0848
35.0790,107.1352
35.0873,107.1487
35.0918,107.1543
35.0917,107.1544
35.0965,107.1602
35.0965,107.1602
35.1012,107.1657
35.1557,107.2171
35.1583,107.2197
39.3732,111.4345
39.4067,111.4959
39.4095,111.5222
39.4095,112.5350
39.4095,112.5350
39.4200,112.6378
39.4200,112.6378
39.4593,112.7564
39.4752,112.8043
39.5673,112.9537
39.6913,113.0777
39.8407,113.1698
40.0072,113.2250
40.1100,113.2355
41.4100,113.2355
41.5128,113.2250
41.6793,113.1698
41.8287,113.0777
41.9527,112.9537
42.0448,112.8043
42.1000,112.6378
42.1105,112.5350
42.1105,110.9850
42.1093,110.9732
42.1000,110.8822
42.1000,110.8822
42.0607,110.7636
42.0448,110.7157
41.9527,110.5663
41.8287,110.4423
41.7359,110.3851
41.6793,110.3502
41.6793,110.3502
41.6779,110.3497
41.5128,110.2950
41.5128,110.2950
41.4100,110.2845
41.4100,110.2845
40.3972,110.2845
40.3302,110.2648
40.3095,110.2482
36.4668,106.4055
36.4333,106.3441
36.4305,106.3178
36.4305,102.9127
36.4502,102.8457
36.4834,102.8111
36.5514,102.7635
36.7185,102.5964
36.8284,102.4394
36.8830,102.3958
36.9525,102.3886
37.0149,102.4201
37.0316,102.4394
37.0792,102.5075
37.1415,102.5964
37.3026,102.7575
37.3086,102.7635
37.3766,102.8111
37.5022,102.8990
37.5022,102.8990
37.5022,102.8990
37.7163,102.9989
37.9446,103.0601
38.1288,103.0762
38.1800,103.0807
38.1800,103.0807
38.1800,103.0807
38.2312,103.0762
38.4154,103.0601
38.6437,102.9989
38.8578,102.8990
39.0514,102.7635
39.2185,102.5964
39.3284,102.4394
39.3830,102.3958
39.4525,102.3886
39.5149,102.4201
39.5316,102.4394
39.5792,102.5075
39.6415,102.5964
39.8026,102.7575
39.8086,102.7635
39.8766,102.8111
40.0022,102.8990
40.0022,102.8990
40.0022,102.8990
40.2163,102.9989
40.4446,103.0601
40.6288,103.0762
40.6800,103.0807
40.6800,103.0807
40.6800,103.0807
40.7312,103.0762
40.9154,103.0601
41.1437,102.9989
41.3578,102.8990
41.5514,102.7635
41.7185,102.5964
41.8284,102.4394
41.8830,102.3958
41.9525,102.3886
42.0149,102.4201
42.0316,102.4394
42.0792,102.5075
42.1415,102.5964
42.3026,102.7575
42.3086,102.7635
42.3766,102.8111
42.5022,102.8990
42.5022,102.8990
42.5022,102.8990
42.7163,102.9989
42.9446,103.0601
43.1288,103.0762
43.1800,103.0807
43.1800,103.0807
43.1800,103.0807
43.2312,103.0762
43.4154,103.0601
43.4750,103.0441
43.5449,103.0457
43.5948,103.0762
47.6843,107.1656
47.6961,107.1793
47.7104,107.1985
47.7483,107.2304
47.7563,107.2377
47.7602,107.2416
47.7602,107.2416
47.7845,107.2608
47.7873,107.2631
47.8150,107.2863
47.8448,107.3113
47.8508,107.3153
47.8508,107.3153
47.8571,107.3194
47.8572,107.3193
47.8633,107.3231
47.8633,107.3231
47.9020,107.3411
47.9313,107.3548
47.9346,107.3564
48.0016,107.3900
48.0084,107.3925
48.0083,107.3926
48.0155,107.3950
48.0155,107.3950
48.0223,107.3973
48.0223,107.3973
48.0959,107.4124
48.0992,107.4132
48.1723,107.4305
48.1723,107.4305
48.1723,107.4305
48.1795,107.4313
48.1794,107.4314
48.1869,107.4322
48.1869,107.4321
48.1941,107.4327
48.1941,107.4327
48.1941,107.4327
48.2691,107.4306
48.2727,107.4305
53.2763,107.4305
53.2943,107.4318
53.3180,107.4353
53.3674,107.4310
53.3782,107.4305
53.3837,107.4305
53.3837,107.4305
53.4146,107.4269
53.4180,107.4265
53.4928,107.4200
53.4928,107.4200
53.4999,107.4185
53.4999,107.4186
53.5072,107.4170
53.5072,107.4169
53.5142,107.4152
53.5143,107.4152
53.5848,107.3896
53.5881,107.3884
53.6593,107.3648
53.6593,107.3648
53.6659,107.3618
53.6659,107.3618
53.6727,107.3585
53.6727,107.3585
53.6791,107.3552
53.6791,107.3552
53.7418,107.3140
53.7447,107.3121
53.8087,107.2727
53.8087,107.2727
53.8143,107.2682
53.8144,107.2683
53.8202,107.2635
53.8202,107.2635
53.8257,107.2588
53.8257,107.2588
53.8772,107.2043
53.8796,107.2017
58.1445,102.9368
58.2059,102.9033
58.2322,102.9005
59.2679,102.9005
59.2679,102.9005
59.3275,102.8941
59.4623,102.8438
59.5775,102.7575
59.6638,102.6423
59.7141,102.5075
59.7205,102.4479
59.7205,101.4122
59.7402,101.3452
59.7568,101.3246
60.2223,100.8591
60.2836,100.8256
60.3533,100.8306
60.4093,100.8724
60.4337,100.9379
60.4340,100.9467
60.4340,103.5533
60.4143,103.6203
60.3977,103.6410
53.0655,110.9732
53.0041,111.0067
52.9778,111.0095
49.5352,111.0095
49.4682,110.9898
49.4337,110.9566
49.2985,110.7636
49.1314,110.5965
49.1314,110.5965
48.9378,110.4610
48.9378,110.4610
48.8978,110.4423
48.7237,110.3611
48.7237,110.3611
48.7237,110.3611
48.4954,110.2999
48.4954,110.2999
48.2600,110.2793
48.2600,110.2793
48.0246,110.2999
48.0246,110.2999
47.7963,110.3611
47.7963,110.3611
47.5822,110.4610
47.5822,110.4610
47.3886,110.5965
47.2215,110.7636
47.1116,110.9206
47.0570,110.9642
46.9875,110.9714
46.9251,110.9399
46.9084,110.9206
46.7985,110.7636
46.6314,110.5965
46.6314,110.5965
46.4378,110.4610
46.4378,110.4610
46.3978,110.4423
46.2237,110.3611
46.2237,110.3611
46.2237,110.3611
45.9954,110.2999
45.9954,110.2999
45.7600,110.2793
45.7600,110.2793
45.5246,110.2999
45.5246,110.2999
45.2963,110.3611
45.2963,110.3611
45.0822,110.4610
45.0822,110.4610
44.8886,110.5965
44.7215,110.7636
44.5860,110.9572
44.5860,110.9572
44.4861,111.1713
44.4861,111.1713
44.4249,111.3996
44.4249,111.3996
44.4095,111.5760
44.4095,111.9440
44.4249,112.1204
44.4249,112.1204
44.4861,112.3487
44.4861,112.3487
44.4861,112.3487
44.5280,112.4385
44.5860,112.5628
44.5860,112.5628
44.7215,112.7564
44.8886,112.9235
44.8886,112.9235
44.9317,112.9537
45.0822,113.0590
45.0822,113.0590
45.0822,113.0590
45.2963,113.1589
45.5246,113.2201
45.7010,113.2355
45.7600,113.2407
45.7600,113.2407
45.7600,113.2407
45.8190,113.2355
45.9954,113.2201
46.0550,113.2041
46.1249,113.2057
46.1748,113.2362
47.7243,114.7856
47.7360,114.7993
47.7504,114.8185
47.7883,114.8504
47.7963,114.8577
47.8002,114.8616
47.8002,114.8616
47.8245,114.8808
47.8273,114.8831
47.8848,114.9313
47.8848,114.9313
47.8908,114.9353
47.8908,114.9353
47.8971,114.9394
47.8972,114.9393
47.9033,114.9431
47.9033,114.9431
47.9713,114.9748
47.9745,114.9763
48.0416,115.0100
48.0416,115.0100
48.0484,115.0125
48.0483,115.0126
48.0555,115.0150
48.0555,115.0150
48.0623,115.0173
48.0623,115.0173
48.0623,115.0173
48.1358,115.0324
48.1392,115.0332
48.2123,115.0505
48.2123,115.0505
48.2195,115.0513
48.2194,115.0514
48.2269,115.0522
48.2270,115.0521
48.2341,115.0527
48.2341,115.0527
48.2341,115.0527
48.3091,115.0506
48.3127,115.0505
53.2763,115.0505
53.2943,115.0518
53.3180,115.0553
53.3674,115.0510
53.3782,115.0505
53.3837,115.0505
53.3837,115.0505
53.4146,115.0469
53.4180,115.0465
53.4928,115.0400
53.4928,115.0400
53.4999,115.0385
53.4999,115.0386
53.5072,115.0370
53.5072,115.0369
53.5142,115.0352
53.5143,115.0352
53.5848,115.0096
53.5881,115.0084
53.6593,114.9848
53.6593,114.9848
53.6659,114.9818
53.6659,114.9818
53.6727,114.9785
53.6727,114.9785
53.6791,114.9752
53.6791,114.9752
53.7418,114.9340
53.7447,114.9321
53.8087,114.8927
53.8087,114.8927
53.8143,114.8882
53.8144,114.8883
53.8202,114.8835
53.8202,114.8835
53.8257,114.8788
53.8257,114.8788
53.8772,114.8243
53.8796,114.8217
62.9422,105.7591
62.9558,105.7474
62.9751,105.7330
63.0069,105.6951
63.0143,105.6871
63.0182,105.6832
63.0182,105.6832
63.0182,105.6832
63.0374,105.6589
63.0396,105.6561
63.0879,105.5986
63.0879,105.5986
63.0919,105.5926
63.0919,105.5926
63.0959,105.5863
63.0959,105.5862
63.0997,105.5801
63.0997,105.5801
63.1314,105.5121
63.1329,105.5089
63.1666,105.4419
63.1666,105.4418
63.1691,105.4351
63.1691,105.4351
63.1716,105.4280
63.1716,105.4280
63.1738,105.4211
63.1738,105.4211
63.1890,105.3475
63.1898,105.3442
63.2071,105.2711
63.2071,105.2711
63.2079,105.2640
63.2080,105.2640
63.2087,105.2565
63.2087,105.2565
63.2093,105.2493
63.2071,105.1743
63.2071,105.1707
63.2071,46.3984
63.2084,46.3804
63.2087,46.3782
63.2119,46.3567
63.2075,46.3073
63.2071,46.2965
63.2071,46.2910
63.2071,46.2910
63.2035,46.2602
63.2031,46.2566
63.1966,46.1819
63.1951,46.1748
63.1952,46.1748
63.1935,46.1675
63.1935,46.1675
63.1918,46.1604
63.1918,46.1604
63.1661,46.0899
63.1650,46.0866
63.1414,46.0154
63.1414,46.0154
63.1383,46.0088
63.1384,46.0088
63.1351,46.0020
63.1351,46.0020
63.1318,45.9956
63.0906,45.9329
63.0887,45.9299
63.0493,45.8660
63.0448,45.8604
63.0449,45.8603
63.0401,45.8545
63.0401,45.8545
63.0354,45.8490
62.9808,45.7975
62.9783,45.7950
59.9101,42.7268
59.8766,42.6655
59.8806,42.5986
59.8943,42.5588
59.9243,42.3507
59.9143,42.1408
59.8647,41.9365
59.8647,41.9365
59.7774,41.7454
59.7774,41.7454
59.7774,41.7454
59.7774,41.7454
59.6555,41.5742
59.6555,41.5742
59.6555,41.5742
59.5034,41.4291
59.3266,41.3155
59.1315,41.2374
58.9251,41.1976
58.9251,41.1976
57.9676,41.1976
57.8108,41.2126
57.8108,41.2126
57.6091,41.2718
57.4223,41.3681
57.2571,41.4980
57.2571,41.4980
57.1195,41.6569
57.0144,41.8389
56.9457,42.0375
56.9457,42.0375
56.9308,42.1408
56.9157,42.2455
56.9257,42.4554
56.9753,42.6597
56.9753,42.6597
57.0626,42.8509
57.0626,42.8509
57.0626,42.8509
57.0626,42.8509
57.1256,42.9394
57.1845,43.0221
57.1845,43.0221
57.3366,43.1671
57.4316,43.2281
57.5134,43.2807
57.7085,43.3588
57.8117,43.3787
57.9149,43.3986
57.9149,43.3986
58.4078,43.3986
58.4748,43.4183
58.4955,43.4349
58.5865,43.5259
58.6199,43.5873
58.6150,43.6570
58.5731,43.7129
58.5076,43.7373
58.4988,43.7376
57.9676,43.7376
57.8108,43.7526
57.8108,43.7526
57.6091,43.8118
57.4223,43.9081
57.2571,44.0380
57.2571,44.0380
57.1195,44.1969
57.0144,44.3789
56.9457,44.5775
56.9457,44.5775
56.9308,44.6808
56.9157,44.7855
56.9257,44.9954
56.9753,45.1997
56.9753,45.1997
57.0626,45.3909
57.0626,45.3909
57.0626,45.3909
57.0626,45.3909
57.1256,45.4794
57.1845,45.5621
57.1845,45.5621
57.3366,45.7071
57.4316,45.7681
57.5134,45.8207
57.7085,45.8988
57.8117,45.9187
57.9149,45.9386
57.9149,45.9386
58.8724,45.9386
58.8724,45.9386
59.0292,45.9236
59.2309,45.8644
59.4177,45.7681
59.5829,45.6382
59.7205,45.4794
59.8256,45.2974
59.8943,45.0988
59.8943,45.0988
59.8963,45.0932
59.8977,45.0937
59.9289,45.0396
59.9910,45.0076
60.0606,45.0142
60.1022,45.0417
61.6698,46.6092
61.7032,46.6706
61.7061,46.6969
61.7061,51.8435
61.6864,51.9105
61.6336,51.9563
61.5644,51.9662
61.5009,51.9372
61.4944,51.9311
59.9101,50.3468
59.8766,50.2855
59.8806,50.2186
59.8943,50.1788
59.9243,49.9707
59.9143,49.7608
59.8647,49.5565
59.8647,49.5565
59.7774,49.3654
59.7774,49.3654
59.7774,49.3654
59.7774,49.3654
59.6555,49.1942
59.6555,49.1942
59.6555,49.1942
59.5034,49.0491
59.3266,48.9355
59.1315,48.8574
58.9251,48.8176
58.9251,48.8176
57.9676,48.8176
57.8108,48.8326
57.8108,48.8326
57.6091,48.8918
57.4223,48.9881
57.2571,49.1180
57.2571,49.1180
57.1195,49.2769
57.0144,49.4589
56.9457,49.6575
56.9457,49.6575
56.9308,49.7608
56.9157,49.8655
56.9257,50.0754
56.9753,50.2797
56.9753,50.2797
57.0626,50.4709
57.0626,50.4709
57.0626,50.4709
57.0626,50.4709
57.1256,50.5594
57.1845,50.6421
57.1845,50.6421
57.3366,50.7871
57.4316,50.8481
57.5134,50.9007
57.7085,50.9788
57.8117,50.9987
57.9149,51.0186
57.9149,51.0186
58.4078,51.0186
58.4748,51.0383
58.4955,51.0549
60.3977,52.9572
60.4312,53.0185
60.4340,53.0448
60.4340,55.6514
60.4143,55.7184
60.3615,55.7642
60.2923,55.7741
60.2288,55.7451
60.2223,55.7391
59.9101,55.4268
59.8766,55.3655
59.8806,55.2986
59.8943,55.2588
59.9243,55.0507
59.9143,54.8408
59.8647,54.6365
59.8647,54.6365
59.7774,54.4454
59.7774,54.4454
59.7774,54.4454
59.7774,54.4454
59.6555,54.2742
59.6555,54.2742
59.6555,54.2742
59.5034,54.1291
59.3266,54.0155
59.1315,53.9374
58.9251,53.8976
58.9251,53.8976
57.9676,53.8976
57.8108,53.9126
57.8108,53.9126
57.6091,53.9718
57.4223,54.0681
57.2571,54.1980
57.2571,54.1980
57.1195,54.3569
57.0144,54.5389
56.9457,54.7375
56.9457,54.7375
56.9308,54.8408
56.9157,54.9455
56.9257,55.1554
56.9753,55.3597
56.9753,55.3597
57.0626,55.5509
57.0626,55.5509
57.0626,55.5509
57.0626,55.5509
57.1256,55.6394
57.1845,55.7221
57.1845,55.7221
57.3366,55.8671
57.4316,55.9281
57.5134,55.9807
57.7085,56.0588
57.8117,56.0787
57.9149,56.0986
57.9149,56.0986
58.4078,56.0986
58.4748,56.1183
58.4955,56.1349
58.5865,56.2259
58.6199,56.2873
58.6150,56.3570
58.5731,56.4129
58.5076,56.4373
58.4988,56.4376
57.9676,56.4376
57.8108,56.4526
57.8108,56.4526
57.6091,56.5118
57.4223,56.6081
57.2571,56.7380
57.2571,56.7380
57.1195,56.8969
57.0144,57.0789
56.9457,57.2775
56.9457,57.2775
56.9308,57.3808
56.9157,57.4855
56.9257,57.6954
56.9257,57.6954
56.9257,57.6954
56.9631,57.8495
56.9598,57.9193
56.9303,57.9664
50.3144,64.5824
50.3007,64.5942
50.2815,64.6085
50.2496,64.6465
50.2423,64.6544
50.2384,64.6583
50.2192,64.6827
50.2169,64.6855
50.1687,64.7429
50.1647,64.7489
50.1647,64.7489
50.1606,64.7553
50.1607,64.7553
50.1569,64.7614
50.1252,64.8294
50.1236,64.8327
50.0900,64.8997
50.0875,64.9065
50.0874,64.9065
50.0850,64.9136
50.0850,64.9136
50.0827,64.9204
50.0676,64.9939
50.0668,64.9974
50.0495,65.0704
50.0487,65.0776
50.0486,65.0776
50.0478,65.0851
50.0479,65.0851
50.0473,65.0923
50.0494,65.1672
50.0495,65.1709
50.0495,99.4953
50.0298,99.5624
49.9770,99.6081
49.9079,99.6181
49.8458,99.5903
49.7902,99.5437
49.7902,99.5437
49.7902,99.5437
49.7842,99.5397
49.7842,99.5397
49.7779,99.5356
49.7778,99.5357
49.7717,99.5319
49.7717,99.5319
49.7717,99.5319
49.7037,99.5002
49.7004,99.4986
49.6695,99.4831
49.6334,99.4650
49.6334,99.4650
49.6334,99.4650
49.6266,99.4625
49.6267,99.4624
49.6195,99.4600
49.6195,99.4600
49.6127,99.4577
49.5392,99.4426
49.5357,99.4418
49.4627,99.4245
49.4555,99.4237
49.4556,99.4236
49.4481,99.4228
49.4480,99.4229
49.4409,99.4223
49.3659,99.4244
49.3623,99.4245
42.1687,99.4245
42.1507,99.4232
42.1270,99.4197
42.0806,99.4238
42.0776,99.4240
42.0668,99.4245
42.0613,99.4245
42.0305,99.4281
42.0269,99.4285
41.9522,99.4350
41.9451,99.4365
41.9451,99.4364
41.9378,99.4380
41.9378,99.4381
41.9307,99.4398
41.8603,99.4654
41.8569,99.4666
41.7857,99.4902
41.7791,99.4932
41.7791,99.4932
41.7723,99.4965
41.7723,99.4965
41.7659,99.4998
41.7032,99.5410
41.7002,99.5429
41.6363,99.5823
41.6307,99.5868
41.6306,99.5867
41.6248,99.5915
41.6248,99.5915
41.6193,99.5962
41.5678,99.6507
41.5653,99.6533
41.0948,100.1238
41.0335,100.1573
40.9750,100.1559
40.9154,100.1399
40.9154,100.1399
40.6800,100.1193
40.6800,100.1193
40.4446,100.1399
40.4446,100.1399
40.2163,100.2011
40.2163,100.2011
40.0022,100.3010
40.0022,100.3010
39.8086,100.4365
39.6415,100.6036
39.5316,100.7606
39.4770,100.8042
39.4075,100.8114
39.3451,100.7799
39.3284,100.7606
39.2185,100.6036
39.0514,100.4365
38.9834,100.3889
38.9398,100.3343
38.9305,100.2873
38.9305,99.3422
38.9502,99.2752
38.9668,99.2545
40.9145,97.3068
40.9759,97.2733
41.0022,97.2705
47.6961,97.2705
47.7033,97.2707
47.7655,97.2743
47.8268,97.2635
47.8339,97.2625
47.8958,97.2552
47.9063,97.2514
47.9272,97.2458
47.9382,97.2439
47.9545,97.2369
47.9954,97.2192
48.0021,97.2165
48.0606,97.1952
48.0700,97.1891
48.0890,97.1788
48.0993,97.1744
48.1493,97.1372
48.1552,97.1331
48.2072,97.0988
48.2149,97.0907
48.2311,97.0763
48.2401,97.0696
48.2801,97.0219
48.2849,97.0165
48.3276,96.9712
48.3332,96.9615
48.3456,96.9438
48.3528,96.9352
48.3808,96.8795
48.3842,96.8732
48.4153,96.8193
48.4186,96.8085
48.4265,96.7885
48.4316,96.7784
48.4459,96.7178
48.4478,96.7109
48.4657,96.6512
48.4663,96.6400
48.4694,96.6186
48.4720,96.6077
48.4720,96.6077
48.4720,96.5454
48.4722,96.5382
48.4759,96.4761
48.4739,96.4650
48.4720,96.4435
48.4720,79.9233
48.4733,79.9054
48.4737,79.9032
48.4768,79.8816
48.4725,79.8323
48.4720,79.8215
48.4720,79.8159
48.4720,79.8159
48.4684,79.7852
48.4681,79.7816
48.4615,79.7068
48.4601,79.6998
48.4601,79.6998
48.4585,79.6924
48.4584,79.6924
48.4568,79.6854
48.4568,79.6854
48.4311,79.6149
48.4299,79.6116
48.4063,79.5403
48.4063,79.5403
48.4033,79.5338
48.4033,79.5337
48.4001,79.5270
48.4000,79.5270
48.3968,79.5205
48.3555,79.4579
48.3536,79.4548
48.3142,79.3910
48.3142,79.3910
48.3142,79.3910
48.3098,79.3853
48.3098,79.3853
48.3050,79.3794
48.3050,79.3795
48.3004,79.3739
48.2952,79.3691
48.2458,79.3225
48.2432,79.3200
34.5101,65.5868
34.4766,65.5255
34.4806,65.4586
34.4895,65.4327
34.4943,65.4188
34.5243,65.2107
34.5143,65.0008
34.4647,64.7965
34.4459,64.7553
34.3774,64.6054
34.3774,64.6054
34.3774,64.6054
34.3774,64.6054
34.2555,64.4342
34.2555,64.4342
34.2555,64.4342
34.1034,64.2891
33.9266,64.1755
33.7315,64.0974
33.5251,64.0576
33.5251,64.0576
32.5676,64.0576
32.4108,64.0726
32.4108,64.0726
32.2091,64.1318
32.0223,64.2281
31.8571,64.3580
31.8571,64.3580
31.7195,64.5169
31.6144,64.6989
31.5457,64.8975
31.5457,64.8975
31.5177,65.0923
31.5157,65.1055
31.5257,65.3154
31.5753,65.5197
31.5753,65.5197
31.6626,65.7109
31.6626,65.7109
31.6626,65.7109
31.6626,65.7109
31.7845,65.8821
31.7845,65.8821
31.7845,65.8821
31.9366,66.0271
31.9366,66.0271
32.1134,66.1407
32.3085,66.2188
32.4117,66.2387
32.5149,66.2586
32.5149,66.2586
33.0078,66.2586
33.0748,66.2783
33.0955,66.2949
33.1865,66.3859
33.2199,66.4473
33.2150,66.5170
33.1731,66.5729
33.1076,66.5973
33.0988,66.5976
32.5676,66.5976
32.4108,66.6126
32.4108,66.6126
32.2091,66.6718
32.0223,66.7681
31.8571,66.8980
31.8571,66.8980
31.7195,67.0569
31.6144,67.2389
31.5457,67.4375
31.5457,67.4375
31.5157,67.6455
31.5257,67.8554
31.5753,68.0597
31.5753,68.0597
31.6626,68.2509
31.6626,68.2509
31.6626,68.2509
31.6626,68.2509
31.7845,68.4221
31.7845,68.4221
31.7845,68.4221
31.9366,68.5671
31.9366,68.5671
32.1134,68.6807
32.3085,68.7588
32.4117,68.7787
32.5149,68.7986
32.5149,68.7986
33.0078,68.7986
33.0748,68.8183
33.0955,68.8349
42.4332,78.1727
42.4667,78.2340
42.4695,78.2603
42.4695,89.8597
42.4498,89.9267
42.3970,89.9725
42.3845,89.9774
42.3593,89.9857
42.3007,90.0052
42.3007,90.0052
42.1513,90.0973
42.0273,90.2213
41.9352,90.3707
41.9352,90.3707
41.8800,90.5372
41.8800,90.5372
41.8800,90.5372
41.8695,90.6400
41.8695,92.2400
41.8695,92.2400
41.8800,92.3428
41.8800,92.3428
41.9352,92.5093
41.9352,92.5093
42.0273,92.6587
42.1513,92.7827
42.3007,92.8748
42.4672,92.9300
42.5700,92.9405
43.8700,92.9405
43.9728,92.9300
44.1393,92.8748
44.2887,92.7827
44.4127,92.6587
44.5048,92.5093
44.5600,92.3428
44.5705,92.2400
44.5705,90.6400
44.5600,90.5372
44.5048,90.3707
44.4127,90.2213
44.2887,90.0973
44.1393,90.0052
44.0555,89.9774
43.9981,89.9376
43.9712,89.8731
43.9705,89.8597
43.9705,77.9618
43.9718,77.9439
43.9753,77.9201
43.9710,77.8708
43.9705,77.8599
43.9705,77.8544
43.9705,77.8544
43.9669,77.8236
43.9665,77.8200
43.9600,77.7453
43.9600,77.7453
43.9600,77.7453
43.9585,77.7383
43.9586,77.7382
43.9570,77.7309
43.9569,77.7309
43.9552,77.7239
43.9552,77.7239
43.9296,77.6533
43.9284,77.6500
43.9048,77.5788
43.9048,77.5788
43.9018,77.5722
43.9018,77.5722
43.8985,77.5654
43.8985,77.5655
43.8952,77.5590
43.8952,77.5590
43.8540,77.4963
43.8521,77.4933
43.8127,77.4295
43.8082,77.4238
43.8083,77.4238
43.8035,77.4179
43.8035,77.4180
43.7988,77.4124
43.7443,77.3610
43.7417,77.3585
34.5101,68.1268
34.4766,68.0655
34.4806,67.9986
34.4963,67.9532
34.4977,67.9537
34.5289,67.8996
34.5910,67.8676
34.6606,67.8742
34.7022,67.9017
46.9347,80.1342
46.9682,80.1955
46.9710,80.2219
46.9710,95.6455
46.9513,95.7125
46.8985,95.7583
46.8470,95.7695
40.7037,95.7695
40.6857,95.7682
40.6620,95.7647
40.6156,95.7688
40.6126,95.7690
40.6018,95.7695
40.5963,95.7695
40.5655,95.7731
40.5619,95.7735
40.4872,95.7800
40.4801,95.7815
40.4801,95.7814
40.4728,95.7830
40.4728,95.7831
40.4657,95.7848
40.3953,95.8104
40.3919,95.8116
40.3207,95.8352
40.3141,95.8382
40.3141,95.8382
40.3073,95.8415
40.3073,95.8415
40.3009,95.8448
40.2382,95.8860
40.2352,95.8879
40.1713,95.9273
40.1657,95.9318
40.1656,95.9317
40.1598,95.9365
40.1598,95.9365
40.1543,95.9412
40.1028,95.9957
40.1003,95.9983
37.6944,98.4043
37.6807,98.4161
37.6615,98.4304
37.6296,98.4683
37.6223,98.4763
37.6184,98.4802
37.5992,98.5045
37.5969,98.5073
37.5487,98.5648
37.5447,98.5708
37.5447,98.5708
37.5406,98.5771
37.5407,98.5772
37.5369,98.5833
37.5052,98.6513
37.5036,98.6545
37.4700,98.7216
37.4675,98.7284
37.4674,98.7283
37.4650,98.7355
37.4650,98.7355
37.4627,98.7423
37.4476,98.8158
37.4468,98.8193
37.4295,98.8923
37.4287,98.8995
37.4286,98.8994
37.4278,98.9069
37.4279,98.9070
37.4273,98.9141
37.4294,98.9891
37.4295,98.9927
37.4295,100.2873
37.4098,100.3543
37.3766,100.3889
37.3086,100.4365
37.1415,100.6036
37.0316,100.7606
36.9770,100.8042
36.9075,100.8114
36.8451,100.7799
36.8284,100.7606
36.7185,100.6036
36.5514,100.4365
36.5514,100.4365
36.3578,100.3010
36.3578,100.3010
36.2768,100.2632
36.1437,100.2011
36.1437,100.2011
36.1437,100.2011
35.9154,100.1399
35.9154,100.1399
35.6800,100.1193
35.6800,100.1193
35.4446,100.1399
35.4446,100.1399
35.3850,100.1559
35.3151,100.1542
35.2652,100.1238
31.2668,96.1255
31.2333,96.0641
31.2305,96.0378
31.2305,82.8855
31.5157,82.8855
31.5257,83.0954
31.5753,83.2997
31.5753,83.2997
31.6626,83.4909
31.6626,83.4909
31.6626,83.4909
31.6626,83.4909
31.7256,83.5794
31.7845,83.6621
31.7845,83.6621
31.9366,83.8071
32.0316,83.8681
32.1134,83.9207
32.1916,83.9520
32.2465,83.9952
32.2694,84.0612
32.2695,84.0671
32.2695,89.8730
32.2498,89.9400
32.1970,89.9857
32.1845,89.9907
32.1407,90.0052
31.9913,90.0973
31.8673,90.2213
31.7752,90.3707
31.7752,90.3707
31.7200,90.5372
31.7200,90.5372
31.7200,90.5372
31.7095,90.6400
31.7095,92.2400
31.7095,92.2400
31.7200,92.3428
31.7200,92.3428
31.7752,92.5093
31.7752,92.5093
31.8673,92.6587
31.9913,92.7827
32.1407,92.8748
32.3072,92.9300
32.4100,92.9405
33.7100,92.9405
33.8128,92.9300
33.9793,92.8748
34.1287,92.7827
34.2527,92.6587
34.3448,92.5093
34.4000,92.3428
34.4105,92.2400
34.4105,90.6400
34.4000,90.5372
34.3448,90.3707
34.2527,90.2213
34.1287,90.0973
33.9793,90.0052
33.9793,90.0052
33.8555,89.9641
33.7981,89.9244
33.7712,89.8599
33.7705,89.8464
33.7705,84.0711
33.7902,84.0041
33.8377,83.9609
34.0177,83.8681
34.1829,83.7382
34.3205,83.5794
34.4256,83.3974
34.4943,83.1988
34.5243,82.9907
34.5143,82.7808
34.4647,82.5765
34.4647,82.5765
34.3774,82.3854
34.3774,82.3854
34.3774,82.3854
34.3774,82.3854
34.2555,82.2142
34.2555,82.2142
34.2555,82.2142
34.1034,82.0691
33.9266,81.9555
33.7315,81.8774
33.5251,81.8376
33.5251,81.8376
32.5676,81.8376
32.4108,81.8526
32.4108,81.8526
32.2091,81.9118
32.0223,82.0081
31.8571,82.1380
31.8571,82.1380
31.7195,82.2969
31.6144,82.4789
31.5457,82.6775
31.5457,82.6775
31.5161,82.8828
31.5157,82.8855
31.2305,82.8855
31.2305,80.3455
31.5157,80.3455
31.5257,80.5554
31.5753,80.7597
31.5753,80.7597
31.6626,80.9509
31.6626,80.9509
31.6626,80.9509
31.6626,80.9509
31.7256,81.0394
31.7845,81.1221
31.7845,81.1221
31.9366,81.2671
32.0316,81.3281
32.1134,81.3807
32.3085,81.4588
32.4117,81.4787
32.5149,81.4986
32.5149,81.4986
33.4724,81.4986
33.4724,81.4986
33.6292,81.4836
33.8309,81.4244
34.0177,81.3281
34.1829,81.1982
34.3205,81.0394
34.4256,80.8574
34.4943,80.6588
34.5243,80.4507
34.5143,80.2408
34.4647,80.0365
34.4647,80.0365
34.3774,79.8454
34.3774,79.8454
34.3774,79.8454
34.3774,79.8454
34.2555,79.6742
34.2555,79.6742
34.2555,79.6742
34.1034,79.5291
33.9266,79.4155
33.7315,79.3374
33.5251,79.2976
33.5251,79.2976
32.5676,79.2976
32.4108,79.3126
32.4108,79.3126
32.2091,79.3718
32.0223,79.4681
31.8571,79.5980
31.8571,79.5980
31.7195,79.7569
31.6144,79.9389
31.5457,80.1375
31.5457,80.1375
31.5161,80.3428
31.5157,80.3455
31.2305,80.3455
31.2305,77.8055
31.5157,77.8055
31.5257,78.0154
31.5753,78.2197
31.5753,78.2197
31.6626,78.4109
31.6626,78.4109
31.6626,78.4109
31.6626,78.4109
31.7256,78.4994
31.7845,78.5821
31.7845,78.5821
31.9366,78.7271
32.0316,78.7881
32.1134,78.8407
32.3085,78.9188
32.4117,78.9387
32.5149,78.9586
32.5149,78.9586
33.4724,78.9586
33.4724,78.9586
33.6292,78.9436
33.8309,78.8844
34.0177,78.7881
34.1829,78.6582
34.3205,78.4994
34.4256,78.3174
34.4943,78.1188
34.5243,77.9107
34.5143,77.7008
34.4647,77.4965
34.4341,77.4295
34.3774,77.3054
34.3774,77.3054
34.3774,77.3054
34.3774,77.3054
34.2555,77.1342
34.2555,77.1342
34.2555,77.1342
34.1034,76.9891
33.9266,76.8755
33.7315,76.7974
33.5251,76.7576
33.5251,76.7576
32.5676,76.7576
32.4108,76.7726
32.4108,76.7726
32.2091,76.8318
32.0223,76.9281
31.8571,77.0580
31.8571,77.0580
31.7195,77.2169
31.6144,77.3989
31.5457,77.5975
31.5457,77.5975
31.5244,77.7453
31.5157,77.8055
31.2305,77.8055
31.2305,75.2655
31.5157,75.2655
31.5257,75.4754
31.5753,75.6797
31.5753,75.6797
31.6626,75.8709
31.6626,75.8709
31.6626,75.8709
31.6626,75.8709
31.7256,75.9594
31.7845,76.0421
31.7845,76.0421
31.9366,76.1871
32.0316,76.2481
32.1134,76.3007
32.3085,76.3788
32.4117,76.3987
32.5149,76.4186
32.5149,76.4186
33.4724,76.4186
33.4724,76.4186
33.6292,76.4036
33.8309,76.3444
34.0177,76.2481
34.1829,76.1182
34.3205,75.9594
34.4256,75.7774
34.4943,75.5788
34.5243,75.3707
34.5143,75.1608
34.4647,74.9565
34.4647,74.9565
34.3774,74.7654
34.3774,74.7654
34.3774,74.7654
34.3774,74.7654
34.2555,74.5942
34.2555,74.5942
34.2555,74.5942
34.1034,74.4491
33.9266,74.3355
33.7315,74.2574
33.5251,74.2176
33.5251,74.2176
32.5676,74.2176
32.4108,74.2326
32.4108,74.2326
32.2091,74.2918
32.0223,74.3881
31.8571,74.5180
31.8571,74.5180
31.7195,74.6769
31.6144,74.8589
31.5457,75.0575
31.5457,75.0575
31.5308,75.1608
31.5157,75.2655
31.2305,75.2655
31.2305,72.7255
31.5157,72.7255
31.5257,72.9354
31.5753,73.1397
31.5753,73.1397
31.6626,73.3309
31.6626,73.3309
31.6626,73.3309
31.6626,73.3309
31.7256,73.4194
31.7845,73.5021
31.7845,73.5021
31.9366,73.6471
32.0316,73.7081
32.1134,73.7607
32.3085,73.8388
32.4117,73.8587
32.5149,73.8786
32.5149,73.8786
33.4724,73.8786
33.4724,73.8786
33.6292,73.8636
33.8309,73.8044
34.0177,73.7081
34.1829,73.5782
34.3205,73.4194
34.4256,73.2374
34.4943,73.0388
34.5243,72.8307
34.5143,72.6208
34.4647,72.4165
34.4647,72.4165
34.3774,72.2254
34.3774,72.2254
34.3774,72.2254
34.3774,72.2254
34.2555,72.0542
34.2555,72.0542
34.2555,72.0542
34.1034,71.9091
33.9266,71.7955
33.7315,71.7174
33.5251,71.6776
33.5251,71.6776
32.5676,71.6776
32.4108,71.6926
32.4108,71.6926
32.2091,71.7518
32.0223,71.8481
31.8571,71.9780
31.8571,71.9780
31.7195,72.1369
31.6144,72.3189
31.5457,72.5175
31.5457,72.5175
31.5308,72.6208
31.5157,72.7255
31.2305,72.7255
31.2305,62.5655
31.5157,62.5655
31.5257,62.7754
31.5753,62.9797
31.5753,62.9797
31.6626,63.1709
31.6626,63.1709
31.6626,63.1709
31.6626,63.1709
31.7256,63.2594
31.7845,63.3421
31.7845,63.3421
31.9366,63.4871
32.0316,63.5481
32.1134,63.6007
32.3085,63.6788
32.4117,63.6987
32.5149,63.7186
32.5149,63.7186
33.4724,63.7186
33.4724,63.7186
33.6292,63.7036
33.8309,63.6444
34.0177,63.5481
34.1829,63.4182
34.3205,63.2594
34.4256,63.0774
34.4943,62.8788
34.5243,62.6707
34.5143,62.4608
34.4647,62.2565
34.4647,62.2565
34.3774,62.0654
34.3774,62.0654
34.3774,62.0654
34.3774,62.0654
34.2555,61.8942
34.2555,61.8942
34.2555,61.8942
34.1034,61.7491
33.9266,61.6355
33.7315,61.5574
33.5251,61.5176
33.5251,61.5176
32.5676,61.5176
32.4108,61.5326
32.4108,61.5326
32.2091,61.5918
32.0223,61.6881
31.8571,61.8180
31.8571,61.8180
31.7195,61.9769
31.6144,62.1589
31.5457,62.3575
31.5457,62.3575
31.5308,62.4608
31.5157,62.5655
31.2305,62.5655
31.2305,60.0255
31.5157,60.0255
31.5257,60.2354
31.5753,60.4397
31.5753,60.4397
31.6626,60.6309
31.6626,60.6309
31.6626,60.6309
31.6626,60.6309
31.7256,60.7194
31.7845,60.8021
31.7845,60.8021
31.9366,60.9471
32.0316,61.0081
32.1134,61.0607
32.3085,61.1388
32.4117,61.1587
32.5149,61.1786
32.5149,61.1786
33.4724,61.1786
33.4724,61.1786
33.6292,61.1636
33.8309,61.1044
34.0177,61.0081
34.1829,60.8782
34.3205,60.7194
34.4256,60.5374
34.4943,60.3388
34.5243,60.1307
34.5143,59.9208
34.4647,59.7165
34.4647,59.7165
34.3774,59.5254
34.3774,59.5254
34.3774,59.5254
34.3774,59.5254
34.2555,59.3542
34.2555,59.3542
34.2555,59.3542
34.1034,59.2091
33.9266,59.0955
33.7315,59.0174
33.5251,58.9776
33.5251,58.9776
32.5676,58.9776
32.4108,58.9926
32.4108,58.9926
32.2091,59.0518
32.0223,59.1481
31.8571,59.2780
31.8571,59.2780
31.7195,59.4369
31.6144,59.6189
31.5457,59.8175
31.5457,59.8175
31.5308,59.9208
31.5157,60.0255
31.2305,60.0255
31.2305,57.4855
31.5157,57.4855
31.5257,57.6954
31.5753,57.8997
31.5753,57.8997
31.6626,58.0909
31.6626,58.0909
31.6626,58.0909
31.6626,58.0909
31.7256,58.1794
31.7845,58.2621
31.7845,58.2621
31.9366,58.4071
32.0316,58.4681
32.1134,58.5207
32.3085,58.5988
32.4117,58.6187
32.5149,58.6386
32.5149,58.6386
33.4724,58.6386
33.4724,58.6386
33.6292,58.6236
33.8309,58.5644
34.0177,58.4681
34.1829,58.3382
34.3205,58.1794
34.4256,57.9974
34.4943,57.7988
34.5243,57.5907
34.5143,57.3808
34.4647,57.1765
34.4647,57.1765
34.3774,56.9854
34.3774,56.9854
34.3774,56.9854
34.3774,56.9854
34.2555,56.8142
34.2555,56.8142
34.2555,56.8142
34.1034,56.6691
33.9266,56.5555
33.7315,56.4774
33.5251,56.4376
33.5251,56.4376
32.5676,56.4376
32.4108,56.4526
32.4108,56.4526
32.2091,56.5118
32.0223,56.6081
31.8571,56.7380
31.8571,56.7380
31.7195,56.8969
31.6144,57.0789
31.5457,57.2775
31.5457,57.2775
31.5308,57.3808
31.5157,57.4855
31.2305,57.4855
31.2305,54.9455
31.5157,54.9455
31.5257,55.1554
31.5753,55.3597
31.5753,55.3597
31.6626,55.5509
31.6626,55.5509
31.6626,55.5509
31.6626,55.5509
31.7256,55.6394
31.7845,55.7221
31.7845,55.7221
31.9366,55.8671
32.0316,55.9281
32.1134,55.9807
32.3085,56.0588
32.4117,56.0787
32.5149,56.0986
32.5149,56.0986
33.4724,56.0986
33.4724,56.0986
33.6292,56.0836
33.8309,56.0244
34.0177,55.9281
34.1829,55.7982
34.3205,55.6394
34.4256,55.4574
34.4943,55.2588
34.5243,55.0507
34.5143,54.8408
34.4647,54.6365
34.4647,54.6365
34.3774,54.4454
34.3774,54.4454
34.3774,54.4454
34.3774,54.4454
34.2555,54.2742
34.2555,54.2742
34.2555,54.2742
34.1034,54.1291
33.9266,54.0155
33.7315,53.9374
33.5251,53.8976
33.5251,53.8976
32.5676,53.8976
32.4108,53.9126
32.4108,53.9126
32.2091,53.9718
32.0223,54.0681
31.8571,54.1980
31.8571,54.1980
31.7195,54.3569
31.6144,54.5389
31.5457,54.7375
31.5457,54.7375
31.5308,54.8408
31.5157,54.9455
31.2305,54.9455
31.2305,52.4055
31.5157,52.4055
31.5257,52.6154
31.5753,52.8197
31.5753,52.8197
31.6626,53.0109
31.6626,53.0109
31.6626,53.0109
31.6626,53.0109
31.7256,53.0994
31.7845,53.1821
31.7845,53.1821
31.9366,53.3271
32.0316,53.3881
32.1134,53.4407
32.3085,53.5188
32.4117,53.5387
32.5149,53.5586
32.5149,53.5586
33.4724,53.5586
33.4724,53.5586
33.6292,53.5436
33.8309,53.4844
34.0177,53.3881
34.1829,53.2582
34.3205,53.0994
34.3520,53.0448
34.4256,52.9174
34.4256,52.9174
34.4256,52.9174
34.4943,52.7188
34.5243,52.5107
34.5143,52.3008
34.4647,52.0965
34.4647,52.0965
34.3774,51.9054
34.3774,51.9054
34.3774,51.9054
34.3774,51.9054
34.2555,51.7342
34.2555,51.7342
34.2555,51.7342
34.1034,51.5891
33.9266,51.4755
33.7315,51.3974
33.5251,51.3576
33.5251,51.3576
32.5676,51.3576
32.4108,51.3726
32.4108,51.3726
32.2091,51.4318
32.0223,51.5281
31.8571,51.6580
31.8571,51.6580
31.7195,51.8169
31.6144,51.9989
31.5457,52.1975
31.5457,52.1975
31.5308,52.3008
31.5157,52.4055
31.2305,52.4055
31.2305,49.8655
31.5157,49.8655
31.5257,50.0754
31.5753,50.2797
31.5753,50.2797
31.6626,50.4709
31.6626,50.4709
31.6626,50.4709
31.6626,50.4709
31.7256,50.5594
31.7845,50.6421
31.7845,50.6421
31.9366,50.7871
32.0316,50.8481
32.1134,50.9007
32.3085,50.9788
32.4117,50.9987
32.5149,51.0186
32.5149,51.0186
33.4724,51.0186
33.4724,51.0186
33.6292,51.0036
33.8309,50.9444
34.0177,50.8481
34.1829,50.7182
34.3205,50.5594
34.4256,50.3774
34.4943,50.1788
34.5243,49.9707
34.5143,49.7608
34.4647,49.5565
34.4647,49.5565
34.3774,49.3654
34.3774,49.3654
34.3774,49.3654
34.3774,49.3654
34.2555,49.1942
34.2555,49.1942
34.2555,49.1942
34.1034,49.0491
33.9266,48.9355
33.7315,48.8574
33.5251,48.8176
33.5251,48.8176
32.5676,48.8176
32.4108,48.8326
32.4108,48.8326
32.2091,48.8918
32.0223,48.9881
31.8571,49.1180
31.8571,49.1180
31.7195,49.2769
31.6144,49.4589
31.5457,49.6575
31.5457,49.6575
31.5308,49.7608
31.5157,49.8655
31.2305,49.8655
31.2305,47.3255
31.5157,47.3255
31.5257,47.5354
31.5753,47.7397
31.5753,47.7397
31.6626,47.9309
31.6626,47.9309
31.6626,47.9309
31.6626,47.9309
31.7256,48.0194
31.7845,48.1021
31.7845,48.1021
31.9366,48.2471
32.0316,48.3081
32.1134,48.3607
32.3085,48.4388
32.4117,48.4587
32.5149,48.4786
32.5149,48.4786
33.4724,48.4786
33.4724,48.4786
33.6292,48.4636
33.8309,48.4044
34.0177,48.3081
34.1829,48.1782
34.3205,48.0194
34.4256,47.8374
34.4943,47.6388
34.5243,47.4307
34.5192,47.3255
56.9157,47.3255
56.9257,47.5354
56.9753,47.7397
56.9753,47.7397
57.0626,47.9309
57.0626,47.9309
57.0626,47.9309
57.0626,47.9309
57.1256,48.0194
57.1845,48.1021
57.1845,48.1021
57.3366,48.2471
57.4316,48.3081
57.5134,48.3607
57.7085,48.4388
57.8117,48.4587
57.9149,48.4786
57.9149,48.4786
58.8724,48.4786
58.8724,48.4786
59.0292,48.4636
59.2309,48.4044
59.4177,48.3081
59.5829,48.1782
59.7205,48.0194
59.8256,47.8374
59.8943,47.6388
59.9243,47.4307
59.9143,47.2208
59.8647,47.0165
59.8647,47.0165
59.7774,46.8254
59.7774,46.8254
59.7774,46.8254
59.7774,46.8254
59.6555,46.6542
59.6555,46.6542
59.6555,46.6542
59.5034,46.5091
59.3266,46.3955
59.1315,46.3174
58.9251,46.2776
58.9251,46.2776
57.9676,46.2776
57.8108,46.2926
57.8108,46.2926
57.6091,46.3518
57.4223,46.4481
57.2571,46.5780
57.2571,46.5780
57.1195,46.7369
57.0144,46.9189
56.9457,47.1175
56.9457,47.1175
56.9308,47.2208
56.9157,47.3255
34.5192,47.3255
34.5143,47.2208
34.4647,47.0165
34.4647,47.0165
34.3774,46.8254
34.3774,46.8254
34.3774,46.8254
34.3774,46.8254
34.2555,46.6542
34.2555,46.6542
34.2555,46.6542
34.1034,46.5091
33.9266,46.3955
33.7315,46.3174
33.5251,46.2776
33.5251,46.2776
32.5676,46.2776
32.4108,46.2926
32.4108,46.2926
32.2091,46.3518
32.0223,46.4481
31.8571,46.5780
31.8571,46.5780
31.7195,46.7369
31.6144,46.9189
31.5457,47.1175
31.5457,47.1175
31.5308,47.2208
31.5157,47.3255
31.2305,47.3255
31.2305,44.7855
31.5157,44.7855
31.5257,44.9954
31.5753,45.1997
31.5753,45.1997
31.6626,45.3909
31.6626,45.3909
31.6626,45.3909
31.6626,45.3909
31.7256,45.4794
31.7845,45.5621
31.7845,45.5621
31.9366,45.7071
32.0316,45.7681
32.1134,45.8207
32.3085,45.8988
32.4117,45.9187
32.5149,45.9386
32.5149,45.9386
33.4724,45.9386
33.4724,45.9386
33.6292,45.9236
33.8309,45.8644
34.0177,45.7681
34.1829,45.6382
34.3205,45.4794
34.4256,45.2974
34.4943,45.0988
34.5243,44.8907
34.5143,44.6808
34.4647,44.4765
34.4647,44.4765
34.3774,44.2854
34.3774,44.2854
34.3774,44.2854
34.3774,44.2854
34.2555,44.1142
34.2555,44.1142
34.2555,44.1142
34.1034,43.9691
33.9266,43.8555
33.7315,43.7774
33.5251,43.7376
33.5251,43.7376
32.5676,43.7376
32.4108,43.7526
32.4108,43.7526
32.2091,43.8118
32.0223,43.9081
31.8571,44.0380
31.8571,44.0380
31.7195,44.1969
31.6144,44.3789
31.5457,44.5775
31.5457,44.5775
31.5308,44.6808
31.5157,44.7855
31.2305,44.7855
31.2305,42.2455
31.5157,42.2455
31.5257,42.4554
31.5753,42.6597
31.5753,42.6597
31.6626,42.8509
31.6626,42.8509
31.6626,42.8509
31.6626,42.8509
31.7256,42.9394
31.7845,43.0221
31.7845,43.0221
31.9366,43.1671
32.0316,43.2281
32.1134,43.2807
32.3085,43.3588
32.4117,43.3787
32.5149,43.3986
32.5149,43.3986
33.4724,43.3986
33.4724,43.3986
33.6292,43.3836
33.8309,43.3244
34.0177,43.2281
34.1829,43.0982
34.3205,42.9394
34.4256,42.7574
34.4943,42.5588
34.5243,42.3507
34.5143,42.1408
34.4647,41.9365
34.4647,41.9365
34.3774,41.7454
34.3774,41.7454
34.3774,41.7454
34.3774,41.7454
34.2555,41.5742
34.2555,41.5742
34.2555,41.5742
34.1034,41.4291
33.9266,41.3155
33.7315,41.2374
33.5251,41.1976
33.5251,41.1976
32.5676,41.1976
32.4108,41.2126
32.4108,41.2126
32.2091,41.2718
32.0223,41.3681
31.8571,41.4980
31.8571,41.4980
31.7195,41.6569
31.6144,41.8389
31.5457,42.0375
31.5457,42.0375
31.5308,42.1408
31.5157,42.2455
31.2305,42.2455
31.2305,40.1203
31.2502,40.0533
31.2668,40.0327
31.3420,39.9575
31.4033,39.9241
31.4730,39.9290
31.5289,39.9709
31.5501,40.0160
31.5753,40.1197
31.5753,40.1197
31.6626,40.3109
31.6626,40.3109
31.6626,40.3109
31.6626,40.3109
31.7256,40.3994
31.7845,40.4821
31.7845,40.4821
31.9366,40.6271
32.0316,40.6881
32.1134,40.7407
32.3085,40.8188
32.4117,40.8387
32.5149,40.8586
32.5149,40.8586
33.4724,40.8586
33.4724,40.8586
33.6292,40.8436
33.8309,40.7844
34.0177,40.6881
34.1829,40.5582
34.3205,40.3994
34.4256,40.2174
34.4943,40.0188
34.5243,39.8107
34.5192,39.7055
56.9157,39.7055
56.9257,39.9154
56.9753,40.1197
56.9753,40.1197
57.0626,40.3109
57.0626,40.3109
57.0626,40.3109
57.0626,40.3109
57.1256,40.3994
57.1845,40.4821
57.1845,40.4821
57.3366,40.6271
57.4316,40.6881
57.5134,40.7407
57.7085,40.8188
57.8117,40.8387
57.9149,40.8586
57.9149,40.8586
58.8724,40.8586
58.8724,40.8586
59.0292,40.8436
59.2309,40.7844
59.4177,40.6881
59.5829,40.5582
59.7205,40.3994
59.8256,40.2174
59.8943,40.0188
59.9243,39.8107
59.9143,39.6008
59.8647,39.3965
59.8459,39.3553
59.7774,39.2054
59.7774,39.2054
59.7774,39.2054
59.7774,39.2054
59.6555,39.0342
59.6555,39.0342
59.6555,39.0342
59.5034,38.8891
59.3266,38.7755
59.1315,38.6974
58.9251,38.6576
58.9251,38.6576
57.9676,38.6576
57.8108,38.6726
57.8108,38.6726
57.6091,38.7318
57.4223,38.8281
57.2571,38.9580
57.2571,38.9580
57.1195,39.1169
57.0144,39.2989
56.9457,39.4975
56.9457,39.4975
56.9177,39.6923
56.9157,39.7055
34.5192,39.7055
34.5143,39.6008
34.4647,39.3965
34.4459,39.3553
34.3774,39.2054
34.3774,39.2054
34.3774,39.2054
34.3774,39.2054
34.2555,39.0342
34.2555,39.0342
34.2555,39.0342
34.1034,38.8891
33.9266,38.7755
33.7315,38.6974
33.5251,38.6576
33.5251,38.6576
32.9412,38.6576
32.8742,38.6379
32.8284,38.5851
32.8185,38.5160
32.8475,38.4524
32.8535,38.4459
32.9445,38.3549
33.0059,38.3215
33.0322,38.3186
34.0679,38.3186
34.0679,38.3186
34.1275,38.3122
34.2623,38.2619
34.3775,38.1757
34.4638,38.0605
34.5141,37.9256
34.5205,37.8660
34.5205,36.5702
34.5141,36.5106
34.4638,36.3758
34.4638,36.3758
34.4638,36.3758
34.3775,36.2606
34.3775,36.2606
34.2623,36.1743
34.2623,36.1743
34.1275,36.1240
34.1275,36.1240
34.0679,36.1176
34.0679,36.1176
34.0679,36.1176
34.0679,36.1176
31.9721,36.1176
31.9721,36.1176
31.9125,36.1240
31.7777,36.1743
31.7777,36.1743
31.6625,36.2606
31.6625,36.2606
31.5762,36.3758
31.5762,36.3758
31.5259,36.5106
31.5195,36.5702
31.5195,36.5702
31.5195,36.5703
31.5195,37.6059
31.4998,37.6729
31.4832,37.6936
29.9944,39.1824
29.9807,39.1942
29.9615,39.2085
29.9296,39.2465
29.9223,39.2544
29.9184,39.2583
29.8992,39.2827
29.8969,39.2855
29.8487,39.3429
29.8447,39.3489
29.8447,39.3489
29.8406,39.3553
29.8407,39.3553
29.8369,39.3614
29.8052,39.4294
29.8036,39.4327
29.7700,39.4997
29.7675,39.5065
29.7674,39.5065
29.7650,39.5136
29.7650,39.5136
29.7627,39.5204
29.7476,39.5939
29.7468,39.5974
29.7295,39.6704
29.7287,39.6776
29.7286,39.6776
29.7278,39.6851
29.7279,39.6851
29.7273,39.6923
29.7294,39.7672
29.7295,39.7709
29.7295,96.3363
29.7282,96.3543
29.7247,96.3780
27.9405,96.3780
27.9405,28.0645
27.9602,27.9975
28.0130,27.9517
28.0645,27.9405
63.3755,27.9405
Z" /> 
</g>
</g>
</g>
<g style="fill:#000000; fill-opacity:1.0000; 
stroke:#000000; stroke-width:0.0000; stroke-opacity:1; 
stroke-linecap:round; stroke-linejoin:round;">
<circle cx="33.0200" cy="37.2181" r="0.4000" /> 
</g>
<g style="fill:#000000; fill-opacity:1.0000; 
stroke:#000000; stroke-width:0.0212; stroke-opacity:1; 
stroke-linecap:round; stroke-linejoin:round;">
</g>
<g style="fill:#000000; fill-opacity:1.0000; 
stroke:#000000; stroke-width:0.0000; stroke-opacity:1; 
stroke-linecap:round; stroke-linejoin:round;">
<circle cx="33.0200" cy="39.7581" r="0.4000" /> 
</g>
<g style="fill:#000000; fill-opacity:1.0000; 
stroke:#000000; stroke-width:0.0212; stroke-opacity:1; 
stroke-linecap:round; stroke-linejoin:round;">
</g>
<g style="fill:#000000; fill-opacity:1.0000; 
stroke:#000000; stroke-width:0.0000; stroke-opacity:1; 
stroke-linecap:round; stroke-linejoin:round;">
<circle cx="33.0200" cy="42.2981" r="0.4000" /> 
</g>
<g style="fill:#000000; fill-opacity:1.0000; 
stroke:#000000; stroke-width:0.0212; stroke-opacity:1; 
stroke-linecap:round; stroke-linejoin:round;">
</g>
<g style="fill:#000000; fill-opacity:1.0000; 
stroke:#000000; stroke-width:0.0000; stroke-opacity:1; 
stroke-linecap:round; stroke-linejoin:round;">
<circle cx="33.0200" cy="44.8381" r="0.4000" /> 
</g>
<g style="fill:#000000; fill-opacity:1.0000; 
stroke:#000000; stroke-width:0.0212; stroke-opacity:1; 
stroke-linecap:round; stroke-linejoin:round;">
</g>
<g style="fill:#000000; fill-opacity:1.0000; 
stroke:#000000; stroke-width:0.0000; stroke-opacity:1; 
stroke-linecap:round; stroke-linejoin:round;">
<circle cx="33.0200" cy="47.3781" r="0.4000" /> 
</g>
<g style="fill:#000000; fill-opacity:1.0000; 
stroke:#000000; stroke-width:0.0212; stroke-opacity:1; 
stroke-linecap:round; stroke-linejoin:round;">
</g>
<g style="fill:#000000; fill-opacity:1.0000; 
stroke:#000000; stroke-width:0.0000; stroke-opacity:1; 
stroke-linecap:round; stroke-linejoin:round;">
<circle cx="33.0200" cy="49.9181" r="0.4000" /> 
</g>
<g style="fill:#000000; fill-opacity:1.0000; 
stroke:#000000; stroke-width:0.0212; stroke-opacity:1; 
stroke-linecap:round; stroke-linejoin:round;">
</g>
<g style="fill:#000000; fill-opacity:1.0000; 
stroke:#000000; stroke-width:0.0000; stroke-opacity:1; 
stroke-linecap:round; stroke-linejoin:round;">
<circle cx="33.0200" cy="52.4581" r="0.4000" /> 
</g>
<g style="fill:#000000; fill-opacity:1.0000; 
stroke:#000000; stroke-width:0.0212; stroke-opacity:1; 
stroke-linecap:round; stroke-linejoin:round;">
</g>
<g style="fill:#000000; fill-opacity:1.0000; 
stroke:#000000; stroke-width:0.0000; stroke-opacity:1; 
stroke-linecap:round; stroke-linejoin:round;">
<circle cx="33.0200" cy="54.9981" r="0.4000" /> 
</g>
<g style="fill:#000000; fill-opacity:1.0000; 
stroke:#000000; stroke-width:0.0212; stroke-opacity:1; 
stroke-linecap:round; stroke-linejoin:round;">
</g>
<g style="fill:#000000; fill-opacity:1.0000; 
stroke:#000000; stroke-width:0.0000; stroke-opacity:1; 
stroke-linecap:round; stroke-linejoin:round;">
<circle cx="33.0200" cy="57.5381" r="0.4000" /> 
</g>
<g style="fill:#000000; fill-opacity:1.0000; 
stroke:#000000; stroke-width:0.0212; stroke-opacity:1; 
stroke-linecap:round; stroke-linejoin:round;">
</g>
<g style="fill:#000000; fill-opacity:1.0000; 
stroke:#000000; stroke-width:0.0000; stroke-opacity:1; 
stroke-linecap:round; stroke-linejoin:round;">
<circle cx="33.0200" cy="60.0781" r="0.4000" /> 
</g>
<g style="fill:#000000; fill-opacity:1.0000; 
stroke:#000000; stroke-width:0.0212; stroke-opacity:1; 
stroke-linecap:round; stroke-linejoin:round;">
</g>
<g style="fill:#000000; fill-opacity:1.0000; 
stroke:#000000; stroke-width:0.0000; stroke-opacity:1; 
stroke-linecap:round; stroke-linejoin:round;">
<circle cx="33.0200" cy="62.6181" r="0.4000" /> 
</g>
<g style="fill:#000000; fill-opacity:1.0000; 
stroke:#000000; stroke-width:0.0212; stroke-opacity:1; 
stroke-linecap:round; stroke-linejoin:round;">
</g>
<g style="fill:#000000; fill-opacity:1.0000; 
stroke:#000000; stroke-width:0.0000; stroke-opacity:1; 
stroke-linecap:round; stroke-linejoin:round;">
<circle cx="33.0200" cy="65.1581" r="0.4000" /> 
</g>
<g style="fill:#000000; fill-opacity:1.0000; 
stroke:#000000; stroke-width:0.0212; stroke-opacity:1; 
stroke-linecap:round; stroke-linejoin:round;">
</g>
<g style="fill:#000000; fill-opacity:1.0000; 
stroke:#000000; stroke-width:0.0000; stroke-opacity:1; 
stroke-linecap:round; stroke-linejoin:round;">
<circle cx="33.0200" cy="67.6981" r="0.4000" /> 
</g>
<g style="fill:#000000; fill-opacity:1.0000; 
stroke:#000000; stroke-width:0.0212; stroke-opacity:1; 
stroke-linecap:round; stroke-linejoin:round;">
</g>
<g style="fill:#000000; fill-opacity:1.0000; 
stroke:#000000; stroke-width:0.0000; stroke-opacity:1; 
stroke-linecap:round; stroke-linejoin:round;">
<circle cx="33.0200" cy="70.2381" r="0.4000" /> 
</g>
<g style="fill:#000000; fill-opacity:1.0000; 
stroke:#000000; stroke-width:0.0212; stroke-opacity:1; 
stroke-linecap:round; stroke-linejoin:round;">
</g>
<g style="fill:#000000; fill-opacity:1.0000; 
stroke:#000000; stroke-width:0.0000; stroke-opacity:1; 
stroke-linecap:round; stroke-linejoin:round;">
<circle cx="33.0200" cy="72.7781" r="0.4000" /> 
</g>
<g style="fill:#000000; fill-opacity:1.0000; 
stroke:#000000; stroke-width:0.0212; stroke-opacity:1; 
stroke-linecap:round; stroke-linejoin:round;">
</g>
<g style="fill:#000000; fill-opacity:1.0000; 
stroke:#000000; stroke-width:0.0000; stroke-opacity:1; 
stroke-linecap:round; stroke-linejoin:round;">
<circle cx="33.0200" cy="75.3181" r="0.4000" /> 
</g>
<g style="fill:#000000; fill-opacity:1.0000; 
stroke:#000000; stroke-width:0.0212; stroke-opacity:1; 
stroke-linecap:round; stroke-linejoin:round;">
</g>
<g style="fill:#000000; fill-opacity:1.0000; 
stroke:#000000; stroke-width:0.0000; stroke-opacity:1; 
stroke-linecap:round; stroke-linejoin:round;">
<circle cx="33.0200" cy="77.8581" r="0.4000" /> 
</g>
<g style="fill:#000000; fill-opacity:1.0000; 
stroke:#000000; stroke-width:0.0212; stroke-opacity:1; 
stroke-linecap:round; stroke-linejoin:round;">
</g>
<g style="fill:#000000; fill-opacity:1.0000; 
stroke:#000000; stroke-width:0.0000; stroke-opacity:1; 
stroke-linecap:round; stroke-linejoin:round;">
<circle cx="33.0200" cy="80.3981" r="0.4000" /> 
</g>
<g style="fill:#000000; fill-opacity:1.0000; 
stroke:#000000; stroke-width:0.0212; stroke-opacity:1; 
stroke-linecap:round; stroke-linejoin:round;">
</g>
<g style="fill:#000000; fill-opacity:1.0000; 
stroke:#000000; stroke-width:0.0000; stroke-opacity:1; 
stroke-linecap:round; stroke-linejoin:round;">
<circle cx="33.0200" cy="82.9381" r="0.4000" /> 
</g>
<g style="fill:#000000; fill-opacity:1.0000; 
stroke:#000000; stroke-width:0.0212; stroke-opacity:1; 
stroke-linecap:round; stroke-linejoin:round;">
</g>
<g style="fill:#000000; fill-opacity:1.0000; 
stroke:#000000; stroke-width:0.0000; stroke-opacity:1; 
stroke-linecap:round; stroke-linejoin:round;">
<circle cx="58.4163" cy="82.9354" r="0.4000" /> 
</g>
<g style="fill:#000000; fill-opacity:1.0000; 
stroke:#000000; stroke-width:0.0212; stroke-opacity:1; 
stroke-linecap:round; stroke-linejoin:round;">
</g>
<g style="fill:#000000; fill-opacity:1.0000; 
stroke:#000000; stroke-width:0.0000; stroke-opacity:1; 
stroke-linecap:round; stroke-linejoin:round;">
<circle cx="58.4163" cy="80.3954" r="0.4000" /> 
</g>
<g style="fill:#000000; fill-opacity:1.0000; 
stroke:#000000; stroke-width:0.0212; stroke-opacity:1; 
stroke-linecap:round; stroke-linejoin:round;">
</g>
<g style="fill:#000000; fill-opacity:1.0000; 
stroke:#000000; stroke-width:0.0000; stroke-opacity:1; 
stroke-linecap:round; stroke-linejoin:round;">
<circle cx="58.4200" cy="77.8581" r="0.4000" /> 
</g>
<g style="fill:#000000; fill-opacity:1.0000; 
stroke:#000000; stroke-width:0.0212; stroke-opacity:1; 
stroke-linecap:round; stroke-linejoin:round;">
</g>
<g style="fill:#000000; fill-opacity:1.0000; 
stroke:#000000; stroke-width:0.0000; stroke-opacity:1; 
stroke-linecap:round; stroke-linejoin:round;">
<circle cx="58.4200" cy="75.3181" r="0.4000" /> 
</g>
<g style="fill:#000000; fill-opacity:1.0000; 
stroke:#000000; stroke-width:0.0212; stroke-opacity:1; 
stroke-linecap:round; stroke-linejoin:round;">
</g>
<g style="fill:#000000; fill-opacity:1.0000; 
stroke:#000000; stroke-width:0.0000; stroke-opacity:1; 
stroke-linecap:round; stroke-linejoin:round;">
<circle cx="58.4200" cy="72.7781" r="0.4000" /> 
</g>
<g style="fill:#000000; fill-opacity:1.0000; 
stroke:#000000; stroke-width:0.0212; stroke-opacity:1; 
stroke-linecap:round; stroke-linejoin:round;">
</g>
<g style="fill:#000000; fill-opacity:1.0000; 
stroke:#000000; stroke-width:0.0000; stroke-opacity:1; 
stroke-linecap:round; stroke-linejoin:round;">
<circle cx="58.4200" cy="70.2381" r="0.4000" /> 
</g>
<g style="fill:#000000; fill-opacity:1.0000; 
stroke:#000000; stroke-width:0.0212; stroke-opacity:1; 
stroke-linecap:round; stroke-linejoin:round;">
</g>
<g style="fill:#000000; fill-opacity:1.0000; 
stroke:#000000; stroke-width:0.0000; stroke-opacity:1; 
stroke-linecap:round; stroke-linejoin:round;">
<circle cx="58.4200" cy="67.6981" r="0.4000" /> 
</g>
<g style="fill:#000000; fill-opacity:1.0000; 
stroke:#000000; stroke-width:0.0212; stroke-opacity:1; 
stroke-linecap:round; stroke-linejoin:round;">
</g>
<g style="fill:#000000; fill-opacity:1.0000; 
stroke:#000000; stroke-width:0.0000; stroke-opacity:1; 
stroke-linecap:round; stroke-linejoin:round;">
<circle cx="58.4200" cy="65.1581" r="0.4000" /> 
</g>
<g style="fill:#000000; fill-opacity:1.0000; 
stroke:#000000; stroke-width:0.0212; stroke-opacity:1; 
stroke-linecap:round; stroke-linejoin:round;">
</g>
<g style="fill:#000000; fill-opacity:1.0000; 
stroke:#000000; stroke-width:0.0000; stroke-opacity:1; 
stroke-linecap:round; stroke-linejoin:round;">
<circle cx="58.4200" cy="62.6181" r="0.4000" /> 
</g>
<g style="fill:#000000; fill-opacity:1.0000; 
stroke:#000000; stroke-width:0.0212; stroke-opacity:1; 
stroke-linecap:round; stroke-linejoin:round;">
</g>
<g style="fill:#000000; fill-opacity:1.0000; 
stroke:#000000; stroke-width:0.0000; stroke-opacity:1; 
stroke-linecap:round; stroke-linejoin:round;">
<circle cx="58.4200" cy="60.0781" r="0.4000" /> 
</g>
<g style="fill:#000000; fill-opacity:1.0000; 
stroke:#000000; stroke-width:0.0212; stroke-opacity:1; 
stroke-linecap:round; stroke-linejoin:round;">
</g>
<g style="fill:#000000; fill-opacity:1.0000; 
stroke:#000000; stroke-width:0.0000; stroke-opacity:1; 
stroke-linecap:round; stroke-linejoin:round;">
<circle cx="58.4200" cy="57.5381" r="0.4000" /> 
</g>
<g style="fill:#000000; fill-opacity:1.0000; 
stroke:#000000; stroke-width:0.0212; stroke-opacity:1; 
stroke-linecap:round; stroke-linejoin:round;">
</g>
<g style="fill:#000000; fill-opacity:1.0000; 
stroke:#000000; stroke-width:0.0000; stroke-opacity:1; 
stroke-linecap:round; stroke-linejoin:round;">
<circle cx="58.4200" cy="54.9981" r="0.4000" /> 
</g>
<g style="fill:#000000; fill-opacity:1.0000; 
stroke:#000000; stroke-width:0.0212; stroke-opacity:1; 
stroke-linecap:round; stroke-linejoin:round;">
</g>
<g style="fill:#000000; fill-opacity:1.0000; 
stroke:#000000; stroke-width:0.0000; stroke-opacity:1; 
stroke-linecap:round; stroke-linejoin:round;">
<circle cx="58.4200" cy="52.4581" r="0.4000" /> 
</g>
<g style="fill:#000000; fill-opacity:1.0000; 
stroke:#000000; stroke-width:0.0212; stroke-opacity:1; 
stroke-linecap:round; stroke-linejoin:round;">
</g>
<g style="fill:#000000; fill-opacity:1.0000; 
stroke:#000000; stroke-width:0.0000; stroke-opacity:1; 
stroke-linecap:round; stroke-linejoin:round;">
<circle cx="58.4200" cy="49.9181" r="0.4000" /> 
</g>
<g style="fill:#000000; fill-opacity:1.0000; 
stroke:#000000; stroke-width:0.0212; stroke-opacity:1; 
stroke-linecap:round; stroke-linejoin:round;">
</g>
<g style="fill:#000000; fill-opacity:1.0000; 
stroke:#000000; stroke-width:0.0000; stroke-opacity:1; 
stroke-linecap:round; stroke-linejoin:round;">
<circle cx="58.4200" cy="47.3781" r="0.4000" /> 
</g>
<g style="fill:#000000; fill-opacity:1.0000; 
stroke:#000000; stroke-width:0.0212; stroke-opacity:1; 
stroke-linecap:round; stroke-linejoin:round;">
</g>
<g style="fill:#000000; fill-opacity:1.0000; 
stroke:#000000; stroke-width:0.0000; stroke-opacity:1; 
stroke-linecap:round; stroke-linejoin:round;">
<circle cx="58.4200" cy="44.8381" r="0.4000" /> 
</g>
<g style="fill:#000000; fill-opacity:1.0000; 
stroke:#000000; stroke-width:0.0212; stroke-opacity:1; 
stroke-linecap:round; stroke-linejoin:round;">
</g>
<g style="fill:#000000; fill-opacity:1.0000; 
stroke:#000000; stroke-width:0.0000; stroke-opacity:1; 
stroke-linecap:round; stroke-linejoin:round;">
<circle cx="58.4200" cy="42.2981" r="0.4000" /> 
</g>
<g style="fill:#000000; fill-opacity:1.0000; 
stroke:#000000; stroke-width:0.0212; stroke-opacity:1; 
stroke-linecap:round; stroke-linejoin:round;">
</g>
<g style="fill:#000000; fill-opacity:1.0000; 
stroke:#000000; stroke-width:0.0000; stroke-opacity:1; 
stroke-linecap:round; stroke-linejoin:round;">
<circle cx="58.4200" cy="39.7581" r="0.4000" /> 
</g>
<g style="fill:#000000; fill-opacity:1.0000; 
stroke:#000000; stroke-width:0.0212; stroke-opacity:1; 
stroke-linecap:round; stroke-linejoin:round;">
</g>
<g style="fill:#000000; fill-opacity:1.0000; 
stroke:#000000; stroke-width:0.0000; stroke-opacity:1; 
stroke-linecap:round; stroke-linejoin:round;">
<circle cx="58.4200" cy="37.2181" r="0.4000" /> 
</g>
<g style="fill:#000000; fill-opacity:1.0000; 
stroke:#000000; stroke-width:0.0212; stroke-opacity:1; 
stroke-linecap:round; stroke-linejoin:round;">
</g>
<g style="fill:#000000; fill-opacity:1.0000; 
stroke:#000000; stroke-width:0.0000; stroke-opacity:1; 
stroke-linecap:round; stroke-linejoin:round;">
<circle cx="43.2200" cy="91.4400" r="0.5000" /> 
</g>
<g style="fill:#000000; fill-opacity:1.0000; 
stroke:#000000; stroke-width:0.0212; stroke-opacity:1; 
stroke-linecap:round; stroke-linejoin:round;">
</g>
<g style="fill:#000000; fill-opacity:1.0000; 
stroke:#000000; stroke-width:0.0000; stroke-opacity:1; 
stroke-linecap:round; stroke-linejoin:round;">
<circle cx="45.7200" cy="91.4400" r="0.5000" /> 
</g>
<g style="fill:#000000; fill-opacity:1.0000; 
stroke:#000000; stroke-width:0.0212; stroke-opacity:1; 
stroke-linecap:round; stroke-linejoin:round;">
</g>
<g style="fill:#000000; fill-opacity:1.0000; 
stroke:#000000; stroke-width:0.0000; stroke-opacity:1; 
stroke-linecap:round; stroke-linejoin:round;">
<circle cx="33.1800" cy="101.6000" r="0.4750" /> 
</g>
<g style="fill:#000000; fill-opacity:1.0000; 
stroke:#000000; stroke-width:0.0212; stroke-opacity:1; 
stroke-linecap:round; stroke-linejoin:round;">
</g>
<g style="fill:#000000; fill-opacity:1.0000; 
stroke:#000000; stroke-width:0.0000; stroke-opacity:1; 
stroke-linecap:round; stroke-linejoin:round;">
<circle cx="35.6800" cy="101.6000" r="0.4750" /> 
</g>
<g style="fill:#000000; fill-opacity:1.0000; 
stroke:#000000; stroke-width:0.0212; stroke-opacity:1; 
stroke-linecap:round; stroke-linejoin:round;">
</g>
<g style="fill:#000000; fill-opacity:1.0000; 
stroke:#000000; stroke-width:0.0000; stroke-opacity:1; 
stroke-linecap:round; stroke-linejoin:round;">
<circle cx="38.1800" cy="101.6000" r="0.4750" /> 
</g>
<g style="fill:#000000; fill-opacity:1.0000; 
stroke:#000000; stroke-width:0.0212; stroke-opacity:1; 
stroke-linecap:round; stroke-linejoin:round;">
</g>
<g style="fill:#000000; fill-opacity:1.0000; 
stroke:#000000; stroke-width:0.0000; stroke-opacity:1; 
stroke-linecap:round; stroke-linejoin:round;">
<circle cx="40.6800" cy="101.6000" r="0.4750" /> 
</g>
<g style="fill:#000000; fill-opacity:1.0000; 
stroke:#000000; stroke-width:0.0212; stroke-opacity:1; 
stroke-linecap:round; stroke-linejoin:round;">
</g>
<g style="fill:#000000; fill-opacity:1.0000; 
stroke:#000000; stroke-width:0.0000; stroke-opacity:1; 
stroke-linecap:round; stroke-linejoin:round;">
<circle cx="43.1800" cy="101.6000" r="0.4750" /> 
</g>
<g style="fill:#000000; fill-opacity:1.0000; 
stroke:#000000; stroke-width:0.0212; stroke-opacity:1; 
stroke-linecap:round; stroke-linejoin:round;">
</g>
<g style="fill:#000000; fill-opacity:1.0000; 
stroke:#000000; stroke-width:0.0000; stroke-opacity:1; 
stroke-linecap:round; stroke-linejoin:round;">
<circle cx="33.0600" cy="91.4400" r="0.5000" /> 
</g>
<g style="fill:#000000; fill-opacity:1.0000; 
stroke:#000000; stroke-width:0.0212; stroke-opacity:1; 
stroke-linecap:round; stroke-linejoin:round;">
</g>
<g style="fill:#000000; fill-opacity:1.0000; 
stroke:#000000; stroke-width:0.0000; stroke-opacity:1; 
stroke-linecap:round; stroke-linejoin:round;">
<circle cx="35.5600" cy="91.4400" r="0.5000" /> 
</g>
<g style="fill:#000000; fill-opacity:1.0000; 
stroke:#000000; stroke-width:0.0212; stroke-opacity:1; 
stroke-linecap:round; stroke-linejoin:round;">
</g>
<g style="fill:#000000; fill-opacity:1.0000; 
stroke:#000000; stroke-width:0.0000; stroke-opacity:1; 
stroke-linecap:round; stroke-linejoin:round;">
<circle cx="53.3800" cy="91.4400" r="0.5000" /> 
</g>
<g style="fill:#000000; fill-opacity:1.0000; 
stroke:#000000; stroke-width:0.0212; stroke-opacity:1; 
stroke-linecap:round; stroke-linejoin:round;">
</g>
<g style="fill:#000000; fill-opacity:1.0000; 
stroke:#000000; stroke-width:0.0000; stroke-opacity:1; 
stroke-linecap:round; stroke-linejoin:round;">
<circle cx="55.8800" cy="91.4400" r="0.5000" /> 
</g>
<g style="fill:#000000; fill-opacity:1.0000; 
stroke:#000000; stroke-width:0.0212; stroke-opacity:1; 
stroke-linecap:round; stroke-linejoin:round;">
</g>
<g style="fill:#000000; fill-opacity:1.0000; 
stroke:#000000; stroke-width:0.0000; stroke-opacity:1; 
stroke-linecap:round; stroke-linejoin:round;">
<circle cx="40.7600" cy="111.7600" r="0.4750" /> 
</g>
<g style="fill:#000000; fill-opacity:1.0000; 
stroke:#000000; stroke-width:0.0212; stroke-opacity:1; 
stroke-linecap:round; stroke-linejoin:round;">
</g>
<g style="fill:#000000; fill-opacity:1.0000; 
stroke:#000000; stroke-width:0.0000; stroke-opacity:1; 
stroke-linecap:round; stroke-linejoin:round;">
<circle cx="43.2600" cy="111.7600" r="0.4750" /> 
</g>
<g style="fill:#000000; fill-opacity:1.0000; 
stroke:#000000; stroke-width:0.0212; stroke-opacity:1; 
stroke-linecap:round; stroke-linejoin:round;">
</g>
<g style="fill:#000000; fill-opacity:1.0000; 
stroke:#000000; stroke-width:0.0000; stroke-opacity:1; 
stroke-linecap:round; stroke-linejoin:round;">
<circle cx="45.7600" cy="111.7600" r="0.4750" /> 
</g>
<g style="fill:#000000; fill-opacity:1.0000; 
stroke:#000000; stroke-width:0.0212; stroke-opacity:1; 
stroke-linecap:round; stroke-linejoin:round;">
</g>
<g style="fill:#000000; fill-opacity:1.0000; 
stroke:#000000; stroke-width:0.0000; stroke-opacity:1; 
stroke-linecap:round; stroke-linejoin:round;">
<circle cx="48.2600" cy="111.7600" r="0.4750" /> 
</g>
<g style="fill:#000000; fill-opacity:1.0000; 
stroke:#000000; stroke-width:0.0212; stroke-opacity:1; 
stroke-linecap:round; stroke-linejoin:round;">
</g>
<g style="fill:#000000; fill-opacity:1.0000; 
stroke:#000000; stroke-width:0.0000; stroke-opacity:1; 
stroke-linecap:round; stroke-linejoin:round;">
<circle cx="50.8000" cy="101.6000" r="0.4000" /> 
</g>
<g style="fill:#000000; fill-opacity:1.0000; 
stroke:#000000; stroke-width:0.0212; stroke-opacity:1; 
stroke-linecap:round; stroke-linejoin:round;">
</g>
<g style="fill:#000000; fill-opacity:1.0000; 
stroke:#000000; stroke-width:0.0000; stroke-opacity:1; 
stroke-linecap:round; stroke-linejoin:round;">
<circle cx="50.8000" cy="103.6000" r="0.4000" /> 
</g>
<g style="fill:#000000; fill-opacity:1.0000; 
stroke:#000000; stroke-width:0.0212; stroke-opacity:1; 
stroke-linecap:round; stroke-linejoin:round;">
</g>
<g style="fill:#000000; fill-opacity:1.0000; 
stroke:#000000; stroke-width:0.0000; stroke-opacity:1; 
stroke-linecap:round; stroke-linejoin:round;">
<circle cx="58.4200" cy="101.6000" r="0.4000" /> 
</g>
<g style="fill:#000000; fill-opacity:1.0000; 
stroke:#000000; stroke-width:0.0212; stroke-opacity:1; 
stroke-linecap:round; stroke-linejoin:round;">
</g>
<g style="fill:#000000; fill-opacity:1.0000; 
stroke:#000000; stroke-width:0.0000; stroke-opacity:1; 
stroke-linecap:round; stroke-linejoin:round;">
<circle cx="58.4200" cy="103.6000" r="0.4000" /> 
</g>
<g style="fill:#000000; fill-opacity:1.0000; 
stroke:#000000; stroke-width:0.0212; stroke-opacity:1; 
stroke-linecap:round; stroke-linejoin:round;">
</g>
<g style="fill:#FFFFFF; fill-opacity:1.0000; 
stroke:#FFFFFF; stroke-width:0.0212; stroke-opacity:1; 
stroke-linecap:round; stroke-linejoin:round;">
</g> 
</svg>
